<svg width="757" height="167" viewBox="0 0 757 167" fill="none" xmlns="http://www.w3.org/2000/svg">
<g clip-path="url(#clip0_1132_2)">
<path d="M195.754 161.793L202.914 144.303H204.624L211.754 161.793H209.184L203.314 147.003H204.194L198.274 161.793H195.754ZM199.154 157.843V155.773H208.354V157.843H199.154Z" fill="#FF4453"/>
<path d="M214.174 161.793V143.803H216.444V161.793H214.174ZM222.644 161.793V154.813C222.644 153.903 222.354 153.163 221.784 152.573C221.214 151.983 220.474 151.693 219.564 151.693C218.964 151.693 218.424 151.823 217.954 152.093C217.484 152.363 217.114 152.733 216.844 153.203C216.574 153.673 216.444 154.213 216.444 154.813L215.514 154.283C215.514 153.373 215.714 152.573 216.114 151.863C216.514 151.153 217.084 150.603 217.804 150.183C218.524 149.773 219.344 149.563 220.244 149.563C221.144 149.563 221.954 149.763 222.654 150.163C223.354 150.563 223.904 151.133 224.304 151.853C224.704 152.573 224.904 153.403 224.904 154.343V161.773H222.644V161.793Z" fill="#FF4453"/>
<path d="M227.984 161.793V149.823H230.254V161.793H227.984ZM236.064 161.793V154.563C236.064 153.673 235.794 152.973 235.244 152.463C234.694 151.953 234.014 151.693 233.194 151.693C232.644 151.693 232.144 151.813 231.704 152.043C231.264 152.283 230.914 152.603 230.644 153.023C230.374 153.443 230.244 153.943 230.244 154.533L229.314 154.083C229.314 153.173 229.514 152.383 229.904 151.713C230.294 151.043 230.844 150.513 231.534 150.143C232.224 149.763 232.994 149.573 233.854 149.573C234.694 149.573 235.454 149.753 236.134 150.123C236.814 150.493 237.354 151.013 237.744 151.683C238.134 152.353 238.334 153.153 238.334 154.073V161.783H236.064V161.793ZM244.154 161.793V154.563C244.154 153.673 243.884 152.973 243.334 152.463C242.784 151.953 242.114 151.693 241.304 151.693C240.754 151.693 240.254 151.813 239.804 152.043C239.354 152.283 239.004 152.603 238.734 153.023C238.464 153.443 238.334 153.943 238.334 154.533L237.054 154.083C237.104 153.163 237.354 152.363 237.794 151.703C238.234 151.043 238.814 150.523 239.524 150.143C240.234 149.763 241.004 149.573 241.844 149.573C242.714 149.573 243.494 149.753 244.184 150.123C244.874 150.493 245.424 151.013 245.834 151.683C246.244 152.353 246.454 153.163 246.454 154.103V161.783H244.154V161.793Z" fill="#FF4453"/>
<path d="M255.064 162.053C253.874 162.053 252.794 161.783 251.834 161.233C250.874 160.683 250.124 159.943 249.564 159.003C249.014 158.063 248.734 156.993 248.734 155.803C248.734 154.623 249.004 153.573 249.554 152.633C250.104 151.693 250.834 150.953 251.774 150.403C252.704 149.853 253.754 149.583 254.914 149.583C256.024 149.583 257.004 149.833 257.854 150.343C258.704 150.843 259.364 151.543 259.844 152.433C260.324 153.323 260.564 154.333 260.564 155.453C260.564 155.623 260.554 155.803 260.534 155.993C260.514 156.183 260.484 156.413 260.434 156.663H250.334V154.773H259.224L258.394 155.503C258.394 154.693 258.254 154.013 257.964 153.453C257.674 152.893 257.274 152.453 256.754 152.143C256.234 151.833 255.604 151.673 254.864 151.673C254.094 151.673 253.414 151.843 252.824 152.173C252.234 152.513 251.784 152.983 251.464 153.583C251.144 154.183 250.984 154.903 250.984 155.723C250.984 156.563 251.154 157.293 251.484 157.923C251.824 158.553 252.294 159.043 252.924 159.383C253.544 159.723 254.264 159.903 255.064 159.903C255.734 159.903 256.354 159.783 256.914 159.553C257.474 159.323 257.964 158.963 258.364 158.493L259.824 159.983C259.254 160.653 258.554 161.163 257.724 161.523C256.894 161.873 256.004 162.053 255.064 162.053Z" fill="#FF4453"/>
<path d="M268.093 162.053C266.983 162.053 265.993 161.783 265.123 161.233C264.253 160.683 263.553 159.943 263.043 159.003C262.533 158.063 262.273 157.003 262.273 155.833C262.273 154.663 262.533 153.603 263.043 152.663C263.553 151.723 264.243 150.973 265.123 150.423C265.993 149.873 266.983 149.593 268.093 149.593C268.983 149.593 269.793 149.783 270.513 150.163C271.233 150.543 271.823 151.063 272.263 151.723C272.703 152.383 272.953 153.153 273.003 154.033V157.633C272.953 158.493 272.713 159.253 272.273 159.923C271.833 160.593 271.253 161.123 270.533 161.493C269.813 161.863 269.003 162.053 268.093 162.053ZM268.473 159.903C269.233 159.903 269.883 159.723 270.453 159.373C271.013 159.023 271.453 158.533 271.773 157.923C272.093 157.313 272.253 156.613 272.253 155.823C272.253 155.003 272.093 154.283 271.763 153.683C271.433 153.083 270.993 152.603 270.423 152.243C269.863 151.893 269.203 151.713 268.443 151.713C267.683 151.713 267.023 151.893 266.453 152.243C265.883 152.593 265.433 153.083 265.103 153.693C264.773 154.303 264.613 155.003 264.613 155.793C264.613 156.603 264.773 157.313 265.103 157.923C265.433 158.533 265.883 159.023 266.463 159.373C267.043 159.733 267.713 159.903 268.473 159.903ZM274.393 161.793H272.103V158.563L272.533 155.643L272.103 152.743V143.803H274.393V161.793Z" fill="#FF4453"/>
<path d="M282.784 162.053C281.694 162.053 280.704 161.783 279.814 161.233C278.924 160.683 278.224 159.943 277.714 159.003C277.204 158.063 276.944 157.003 276.944 155.833C276.944 154.663 277.204 153.603 277.714 152.663C278.224 151.723 278.924 150.973 279.804 150.423C280.684 149.873 281.684 149.593 282.794 149.593C283.704 149.593 284.514 149.783 285.224 150.163C285.934 150.543 286.514 151.063 286.954 151.723C287.394 152.383 287.634 153.153 287.684 154.033V157.633C287.634 158.493 287.394 159.253 286.964 159.923C286.534 160.593 285.964 161.123 285.254 161.493C284.524 161.863 283.704 162.053 282.784 162.053ZM283.164 159.903C284.294 159.903 285.194 159.523 285.884 158.753C286.574 157.993 286.914 157.013 286.914 155.813C286.914 154.993 286.754 154.273 286.444 153.663C286.134 153.053 285.694 152.573 285.124 152.223C284.554 151.883 283.894 151.703 283.134 151.703C282.374 151.703 281.714 151.883 281.134 152.233C280.554 152.583 280.104 153.073 279.774 153.683C279.444 154.293 279.284 154.993 279.284 155.783C279.284 156.593 279.444 157.303 279.774 157.913C280.104 158.523 280.554 159.013 281.144 159.363C281.734 159.733 282.404 159.903 283.164 159.903ZM286.764 161.793V158.563L287.194 155.643L286.764 152.743V149.823H289.054V161.793H286.764Z" fill="#FF4453"/>
<path d="M292.354 161.793V143.803H294.624V152.743L294.194 155.643L294.624 158.563V161.793H292.354ZM298.654 162.053C297.744 162.053 296.924 161.863 296.194 161.483C295.464 161.103 294.884 160.583 294.444 159.913C294.004 159.243 293.764 158.473 293.714 157.623V154.023C293.764 153.153 294.013 152.383 294.453 151.713C294.893 151.053 295.484 150.533 296.214 150.153C296.944 149.773 297.753 149.583 298.643 149.583C299.733 149.583 300.724 149.863 301.604 150.413C302.484 150.963 303.174 151.713 303.684 152.653C304.184 153.593 304.444 154.653 304.444 155.823C304.444 156.993 304.194 158.053 303.684 158.993C303.184 159.933 302.484 160.673 301.604 161.223C300.734 161.773 299.744 162.053 298.654 162.053ZM298.273 159.903C299.033 159.903 299.693 159.723 300.263 159.373C300.833 159.023 301.284 158.533 301.624 157.923C301.964 157.313 302.124 156.603 302.124 155.793C302.124 155.003 301.954 154.303 301.624 153.673C301.284 153.053 300.833 152.573 300.263 152.223C299.693 151.883 299.034 151.703 298.294 151.703C297.534 151.703 296.874 151.873 296.304 152.223C295.734 152.563 295.284 153.053 294.964 153.673C294.644 154.293 294.484 155.013 294.484 155.813C294.484 156.603 294.643 157.303 294.953 157.913C295.263 158.523 295.714 159.013 296.294 159.363C296.874 159.733 297.533 159.903 298.273 159.903Z" fill="#FF4453"/>
<path d="M312.104 162.053C311.014 162.053 310.024 161.783 309.134 161.233C308.244 160.683 307.544 159.943 307.034 159.003C306.524 158.063 306.264 157.003 306.264 155.833C306.264 154.663 306.524 153.603 307.034 152.663C307.544 151.723 308.244 150.973 309.124 150.423C310.004 149.873 311.004 149.593 312.114 149.593C313.024 149.593 313.834 149.783 314.544 150.163C315.254 150.543 315.834 151.063 316.274 151.723C316.714 152.383 316.954 153.153 317.004 154.033V157.633C316.954 158.493 316.714 159.253 316.284 159.923C315.854 160.593 315.284 161.123 314.574 161.493C313.854 161.863 313.034 162.053 312.104 162.053ZM312.484 159.903C313.614 159.903 314.514 159.523 315.204 158.753C315.894 157.993 316.234 157.013 316.234 155.813C316.234 154.993 316.074 154.273 315.764 153.663C315.454 153.053 315.014 152.573 314.444 152.223C313.874 151.883 313.214 151.703 312.454 151.703C311.694 151.703 311.034 151.883 310.454 152.233C309.874 152.583 309.424 153.073 309.094 153.683C308.764 154.293 308.604 154.993 308.604 155.783C308.604 156.593 308.764 157.303 309.094 157.913C309.424 158.523 309.874 159.013 310.464 159.363C311.054 159.733 311.734 159.903 312.484 159.903ZM316.094 161.793V158.563L316.524 155.643L316.094 152.743V149.823H318.384V161.793H316.094Z" fill="#FF4453"/>
<path d="M326.744 162.053C325.634 162.053 324.644 161.783 323.774 161.233C322.904 160.683 322.204 159.943 321.694 159.003C321.184 158.063 320.924 157.003 320.924 155.833C320.924 154.663 321.184 153.603 321.694 152.663C322.204 151.723 322.894 150.973 323.774 150.423C324.644 149.873 325.634 149.593 326.744 149.593C327.634 149.593 328.444 149.783 329.164 150.163C329.884 150.543 330.474 151.063 330.914 151.723C331.354 152.383 331.604 153.153 331.654 154.033V157.633C331.604 158.493 331.364 159.253 330.924 159.923C330.484 160.593 329.904 161.123 329.184 161.493C328.464 161.863 327.654 162.053 326.744 162.053ZM327.124 159.903C327.884 159.903 328.534 159.723 329.104 159.373C329.664 159.023 330.104 158.533 330.424 157.923C330.744 157.313 330.904 156.613 330.904 155.823C330.904 155.003 330.744 154.283 330.414 153.683C330.084 153.083 329.644 152.603 329.074 152.243C328.514 151.893 327.854 151.713 327.094 151.713C326.334 151.713 325.674 151.893 325.104 152.243C324.534 152.593 324.084 153.083 323.754 153.693C323.424 154.303 323.264 155.003 323.264 155.793C323.264 156.603 323.424 157.313 323.754 157.923C324.084 158.533 324.534 159.023 325.114 159.373C325.704 159.733 326.364 159.903 327.124 159.903ZM333.044 161.793H330.754V158.563L331.184 155.643L330.754 152.743V143.803H333.044V161.793Z" fill="#FF4453"/>
<path d="M341.994 161.793V144.303H344.364V161.793H341.994Z" fill="#FF4453"/>
<path d="M347.184 146.483V144.313H361.424V146.483H347.184ZM353.124 161.793V144.813H355.494V161.793H353.124Z" fill="#FF4453"/>
<path d="M369.074 161.793V144.303H370.734L378.144 156.473H377.014L384.424 144.303H386.084V161.793H383.714V148.463L384.264 148.613L378.414 158.213H376.754L370.904 148.613L371.434 148.463V161.793H369.074Z" fill="#FF4453"/>
<path d="M394.903 162.053C393.813 162.053 392.823 161.783 391.933 161.233C391.043 160.683 390.343 159.943 389.833 159.003C389.323 158.063 389.063 157.003 389.063 155.833C389.063 154.663 389.323 153.603 389.833 152.663C390.343 151.723 391.043 150.973 391.923 150.423C392.803 149.873 393.803 149.593 394.913 149.593C395.823 149.593 396.633 149.783 397.343 150.163C398.053 150.543 398.633 151.063 399.073 151.723C399.513 152.383 399.753 153.153 399.803 154.033V157.633C399.753 158.493 399.513 159.253 399.083 159.923C398.653 160.593 398.083 161.123 397.373 161.493C396.643 161.863 395.823 162.053 394.903 162.053ZM395.273 159.903C396.403 159.903 397.303 159.523 397.993 158.753C398.683 157.993 399.023 157.013 399.023 155.813C399.023 154.993 398.863 154.273 398.553 153.663C398.243 153.053 397.803 152.573 397.233 152.223C396.663 151.883 396.003 151.703 395.243 151.703C394.483 151.703 393.823 151.883 393.243 152.233C392.663 152.583 392.213 153.073 391.883 153.683C391.553 154.293 391.393 154.993 391.393 155.783C391.393 156.593 391.553 157.303 391.883 157.913C392.213 158.523 392.663 159.013 393.253 159.363C393.853 159.733 394.523 159.903 395.273 159.903ZM398.883 161.793V158.563L399.313 155.643L398.883 152.743V149.823H401.173V161.793H398.883Z" fill="#FF4453"/>
<path d="M404.474 161.793V149.823H406.744V161.793H404.474ZM412.944 161.793V154.813C412.944 153.903 412.654 153.163 412.084 152.573C411.514 151.983 410.774 151.693 409.864 151.693C409.264 151.693 408.724 151.823 408.254 152.093C407.784 152.363 407.414 152.733 407.144 153.203C406.874 153.673 406.744 154.213 406.744 154.813L405.814 154.283C405.814 153.373 406.014 152.573 406.414 151.863C406.814 151.153 407.384 150.603 408.104 150.183C408.824 149.773 409.644 149.563 410.544 149.563C411.454 149.563 412.254 149.793 412.954 150.243C413.654 150.693 414.204 151.293 414.604 152.023C415.004 152.753 415.214 153.533 415.214 154.353V161.783H412.944V161.793Z" fill="#FF4453"/>
<path d="M423.374 162.053C422.284 162.053 421.294 161.783 420.404 161.233C419.514 160.683 418.814 159.943 418.304 159.003C417.794 158.063 417.534 157.003 417.534 155.833C417.534 154.663 417.794 153.603 418.304 152.663C418.814 151.723 419.514 150.973 420.394 150.423C421.274 149.873 422.274 149.593 423.384 149.593C424.294 149.593 425.104 149.783 425.814 150.163C426.524 150.543 427.104 151.063 427.544 151.723C427.984 152.383 428.224 153.153 428.274 154.033V157.633C428.224 158.493 427.984 159.253 427.554 159.923C427.124 160.593 426.554 161.123 425.844 161.493C425.134 161.863 424.294 162.053 423.374 162.053ZM423.754 159.903C424.874 159.903 425.784 159.523 426.474 158.753C427.164 157.993 427.504 157.013 427.504 155.813C427.504 154.993 427.344 154.273 427.034 153.663C426.724 153.053 426.284 152.573 425.714 152.223C425.144 151.883 424.484 151.703 423.724 151.703C422.964 151.703 422.304 151.883 421.724 152.233C421.144 152.583 420.694 153.073 420.364 153.683C420.034 154.293 419.874 154.993 419.874 155.783C419.874 156.593 420.034 157.303 420.364 157.913C420.694 158.523 421.144 159.013 421.734 159.363C422.324 159.733 422.994 159.903 423.754 159.903ZM427.354 161.793V158.563L427.784 155.643L427.354 152.743V149.823H429.644V161.793H427.354Z" fill="#FF4453"/>
<path d="M437.904 161.593C436.814 161.593 435.834 161.333 434.964 160.813C434.104 160.293 433.414 159.573 432.914 158.663C432.414 157.743 432.154 156.723 432.154 155.573C432.154 154.433 432.404 153.413 432.914 152.513C433.414 151.613 434.104 150.903 434.964 150.373C435.834 149.843 436.804 149.583 437.904 149.583C438.844 149.583 439.674 149.763 440.394 150.133C441.114 150.503 441.694 151.023 442.124 151.683C442.554 152.343 442.784 153.123 442.814 154.013V157.183C442.764 158.053 442.524 158.823 442.094 159.493C441.664 160.153 441.094 160.673 440.364 161.043C439.654 161.413 438.834 161.593 437.904 161.593ZM437.904 167.063C436.674 167.063 435.594 166.833 434.644 166.383C433.694 165.933 432.934 165.293 432.364 164.473L433.824 162.983C434.314 163.603 434.894 164.083 435.564 164.403C436.234 164.733 437.034 164.893 437.954 164.893C439.184 164.893 440.154 164.573 440.864 163.923C441.574 163.273 441.934 162.403 441.934 161.313V158.343L442.334 155.643L441.934 152.973V149.823H444.204V161.313C444.204 162.453 443.944 163.453 443.414 164.313C442.884 165.173 442.144 165.843 441.194 166.333C440.244 166.823 439.154 167.063 437.904 167.063ZM438.364 159.453C439.104 159.453 439.754 159.293 440.314 158.973C440.874 158.653 441.304 158.203 441.614 157.623C441.914 157.043 442.064 156.363 442.064 155.593C442.064 154.823 441.914 154.143 441.594 153.563C441.284 152.983 440.854 152.533 440.294 152.203C439.744 151.873 439.084 151.713 438.334 151.713C437.574 151.713 436.914 151.873 436.344 152.203C435.774 152.533 435.324 152.983 434.994 153.563C434.664 154.143 434.504 154.813 434.504 155.563C434.504 156.323 434.664 156.993 434.994 157.583C435.324 158.173 435.774 158.633 436.354 158.953C436.934 159.293 437.604 159.453 438.364 159.453Z" fill="#FF4453"/>
<path d="M453.074 162.053C451.884 162.053 450.804 161.783 449.844 161.233C448.884 160.683 448.134 159.943 447.574 159.003C447.024 158.063 446.744 156.993 446.744 155.803C446.744 154.623 447.014 153.573 447.564 152.633C448.114 151.693 448.854 150.953 449.784 150.403C450.714 149.853 451.764 149.583 452.924 149.583C454.034 149.583 455.014 149.833 455.864 150.343C456.714 150.843 457.374 151.543 457.854 152.433C458.334 153.323 458.574 154.333 458.574 155.453C458.574 155.623 458.564 155.803 458.544 155.993C458.524 156.183 458.494 156.413 458.444 156.663H448.344V154.773H457.234L456.404 155.503C456.404 154.693 456.264 154.013 455.974 153.453C455.684 152.893 455.284 152.453 454.764 152.143C454.244 151.833 453.614 151.673 452.874 151.673C452.104 151.673 451.424 151.843 450.834 152.173C450.244 152.513 449.794 152.983 449.474 153.583C449.154 154.183 448.994 154.903 448.994 155.723C448.994 156.563 449.164 157.293 449.494 157.923C449.834 158.553 450.304 159.043 450.934 159.383C451.554 159.723 452.274 159.903 453.074 159.903C453.744 159.903 454.364 159.783 454.924 159.553C455.484 159.323 455.974 158.963 456.374 158.493L457.834 159.983C457.264 160.653 456.564 161.163 455.734 161.523C454.904 161.873 454.014 162.053 453.074 162.053Z" fill="#FF4453"/>
<path d="M461.034 161.793V149.823H463.304V161.793H461.034ZM469.124 161.793V154.563C469.124 153.673 468.854 152.973 468.304 152.463C467.754 151.953 467.074 151.693 466.254 151.693C465.704 151.693 465.204 151.813 464.764 152.043C464.324 152.283 463.974 152.603 463.704 153.023C463.434 153.443 463.304 153.943 463.304 154.533L462.374 154.083C462.374 153.173 462.574 152.383 462.964 151.713C463.354 151.043 463.904 150.513 464.594 150.143C465.284 149.763 466.054 149.573 466.914 149.573C467.754 149.573 468.514 149.753 469.194 150.123C469.874 150.493 470.414 151.013 470.804 151.683C471.194 152.353 471.394 153.153 471.394 154.073V161.783H469.124V161.793ZM477.214 161.793V154.563C477.214 153.673 476.944 152.973 476.394 152.463C475.844 151.953 475.174 151.693 474.364 151.693C473.814 151.693 473.314 151.813 472.864 152.043C472.414 152.283 472.064 152.603 471.794 153.023C471.524 153.443 471.394 153.943 471.394 154.533L470.104 154.083C470.154 153.163 470.404 152.363 470.844 151.703C471.284 151.043 471.864 150.523 472.574 150.143C473.284 149.763 474.054 149.573 474.894 149.573C475.764 149.573 476.544 149.753 477.234 150.123C477.924 150.493 478.474 151.013 478.884 151.683C479.294 152.353 479.504 153.163 479.504 154.103V161.783H477.214V161.793Z" fill="#FF4453"/>
<path d="M488.124 162.053C486.934 162.053 485.854 161.783 484.894 161.233C483.934 160.683 483.184 159.943 482.624 159.003C482.074 158.063 481.794 156.993 481.794 155.803C481.794 154.623 482.064 153.573 482.614 152.633C483.164 151.693 483.904 150.953 484.834 150.403C485.764 149.853 486.814 149.583 487.974 149.583C489.084 149.583 490.064 149.833 490.914 150.343C491.764 150.843 492.424 151.543 492.904 152.433C493.384 153.323 493.624 154.333 493.624 155.453C493.624 155.623 493.614 155.803 493.594 155.993C493.574 156.183 493.544 156.413 493.494 156.663H483.394V154.773H492.284L491.454 155.503C491.454 154.693 491.314 154.013 491.024 153.453C490.734 152.893 490.334 152.453 489.814 152.143C489.294 151.833 488.664 151.673 487.924 151.673C487.154 151.673 486.474 151.843 485.884 152.173C485.294 152.513 484.844 152.983 484.524 153.583C484.204 154.183 484.044 154.903 484.044 155.723C484.044 156.563 484.214 157.293 484.544 157.923C484.884 158.553 485.354 159.043 485.984 159.383C486.604 159.723 487.324 159.903 488.124 159.903C488.794 159.903 489.414 159.783 489.974 159.553C490.534 159.323 491.024 158.963 491.424 158.493L492.884 159.983C492.314 160.653 491.614 161.163 490.784 161.523C489.954 161.873 489.064 162.053 488.124 162.053Z" fill="#FF4453"/>
<path d="M496.084 161.793V149.823H498.354V161.793H496.084ZM504.554 161.793V154.813C504.554 153.903 504.264 153.163 503.694 152.573C503.124 151.983 502.384 151.693 501.474 151.693C500.874 151.693 500.334 151.823 499.864 152.093C499.394 152.363 499.024 152.733 498.754 153.203C498.484 153.673 498.354 154.213 498.354 154.813L497.424 154.283C497.424 153.373 497.624 152.573 498.024 151.863C498.424 151.153 498.994 150.603 499.714 150.183C500.434 149.773 501.254 149.563 502.154 149.563C503.064 149.563 503.864 149.793 504.564 150.243C505.264 150.693 505.814 151.293 506.214 152.023C506.614 152.753 506.814 153.533 506.814 154.353V161.783H504.554V161.793Z" fill="#FF4453"/>
<path d="M508.634 151.893V149.823H516.794V151.893H508.634ZM511.584 161.793V144.813H513.854V161.793H511.584Z" fill="#FF4453"/>
<path d="M524.654 161.793V144.303H527.024V161.793H524.654ZM526.274 146.483V144.313H536.174V146.483H526.274ZM526.274 153.883V151.813H535.474V153.883H526.274ZM526.274 161.793V159.623H536.304V161.793H526.274Z" fill="#FF4453"/>
<path d="M537.884 161.793L542.824 155.143L544.114 156.803L540.564 161.793H537.884ZM546.984 161.793L543.254 156.553L542.824 156.153L538.114 149.833H540.864L544.264 154.493L544.694 154.843L549.734 161.793H546.984ZM544.864 156.133L543.554 154.523L546.854 149.833H549.504L544.864 156.133Z" fill="#FF4453"/>
<path d="M556.984 162.053C555.794 162.053 554.714 161.783 553.754 161.233C552.794 160.683 552.044 159.943 551.484 159.003C550.934 158.063 550.654 156.993 550.654 155.803C550.654 154.623 550.924 153.573 551.474 152.633C552.024 151.693 552.764 150.953 553.694 150.403C554.624 149.853 555.674 149.583 556.834 149.583C557.944 149.583 558.924 149.833 559.774 150.343C560.624 150.843 561.284 151.543 561.764 152.433C562.244 153.323 562.484 154.333 562.484 155.453C562.484 155.623 562.474 155.803 562.454 155.993C562.434 156.183 562.404 156.413 562.354 156.663H552.254V154.773H561.144L560.314 155.503C560.314 154.693 560.174 154.013 559.884 153.453C559.594 152.893 559.194 152.453 558.674 152.143C558.154 151.833 557.524 151.673 556.784 151.673C556.014 151.673 555.334 151.843 554.744 152.173C554.154 152.513 553.704 152.983 553.384 153.583C553.064 154.183 552.904 154.903 552.904 155.723C552.904 156.563 553.074 157.293 553.404 157.923C553.744 158.553 554.214 159.043 554.844 159.383C555.464 159.723 556.184 159.903 556.984 159.903C557.654 159.903 558.274 159.783 558.834 159.553C559.394 159.323 559.884 158.963 560.284 158.493L561.744 159.983C561.174 160.653 560.474 161.163 559.644 161.523C558.814 161.873 557.924 162.053 556.984 162.053Z" fill="#FF4453"/>
<path d="M570.414 162.053C569.234 162.053 568.174 161.773 567.224 161.223C566.274 160.673 565.524 159.913 564.984 158.973C564.434 158.023 564.164 156.973 564.164 155.813C564.164 154.633 564.434 153.583 564.984 152.643C565.534 151.703 566.274 150.963 567.224 150.413C568.174 149.863 569.234 149.593 570.414 149.593C571.334 149.593 572.194 149.763 572.984 150.113C573.774 150.453 574.454 150.953 575.024 151.613L573.514 153.123C573.144 152.683 572.694 152.353 572.164 152.123C571.634 151.893 571.054 151.783 570.414 151.783C569.654 151.783 568.984 151.953 568.394 152.303C567.804 152.643 567.344 153.123 567.004 153.723C566.664 154.323 566.504 155.023 566.504 155.813C566.504 156.603 566.674 157.303 567.004 157.903C567.344 158.513 567.804 158.983 568.394 159.343C568.984 159.693 569.654 159.873 570.414 159.873C571.054 159.873 571.634 159.763 572.164 159.533C572.694 159.303 573.154 158.973 573.534 158.533L575.024 160.043C574.474 160.683 573.794 161.173 572.994 161.533C572.194 161.873 571.334 162.053 570.414 162.053Z" fill="#FF4453"/>
<path d="M582.104 162.053C581.114 162.053 580.224 161.833 579.444 161.383C578.664 160.943 578.054 160.323 577.614 159.533C577.174 158.743 576.954 157.833 576.954 156.783V149.833H579.224V156.683C579.224 157.333 579.334 157.903 579.564 158.383C579.794 158.863 580.124 159.223 580.564 159.483C581.004 159.733 581.514 159.863 582.104 159.863C582.994 159.863 583.694 159.583 584.194 159.023C584.694 158.463 584.954 157.683 584.954 156.693V149.843H587.224V156.793C587.224 157.833 587.004 158.753 586.574 159.543C586.134 160.333 585.534 160.953 584.774 161.393C583.994 161.823 583.114 162.053 582.104 162.053Z" fill="#FF4453"/>
<path d="M589.154 151.893V149.823H597.314V151.893H589.154ZM592.104 161.793V144.813H594.374V161.793H592.104Z" fill="#FF4453"/>
<path d="M600.694 147.433C600.274 147.433 599.934 147.293 599.664 147.013C599.394 146.733 599.264 146.383 599.264 145.963C599.264 145.563 599.394 145.223 599.664 144.943C599.934 144.663 600.274 144.523 600.694 144.523C601.114 144.523 601.454 144.663 601.724 144.943C601.994 145.223 602.124 145.563 602.124 145.963C602.124 146.383 601.994 146.733 601.724 147.013C601.464 147.293 601.114 147.433 600.694 147.433ZM599.564 161.793V149.823H601.834V161.793H599.564Z" fill="#FF4453"/>
<path d="M609.294 161.793L603.804 149.823H606.324L610.734 159.923H609.274L613.704 149.823H616.124L610.634 161.793H609.294Z" fill="#FF4453"/>
<path d="M623.143 162.053C621.953 162.053 620.873 161.783 619.913 161.233C618.953 160.683 618.203 159.943 617.643 159.003C617.093 158.063 616.813 156.993 616.813 155.803C616.813 154.623 617.083 153.573 617.633 152.633C618.183 151.693 618.923 150.953 619.853 150.403C620.783 149.853 621.833 149.583 622.993 149.583C624.103 149.583 625.083 149.833 625.933 150.343C626.783 150.843 627.443 151.543 627.923 152.433C628.403 153.323 628.643 154.333 628.643 155.453C628.643 155.623 628.633 155.803 628.613 155.993C628.593 156.183 628.563 156.413 628.513 156.663H618.413V154.773H627.303L626.473 155.503C626.473 154.693 626.333 154.013 626.043 153.453C625.753 152.893 625.353 152.453 624.833 152.143C624.313 151.833 623.683 151.673 622.943 151.673C622.173 151.673 621.493 151.843 620.903 152.173C620.313 152.513 619.863 152.983 619.543 153.583C619.223 154.183 619.063 154.903 619.063 155.723C619.063 156.563 619.233 157.293 619.563 157.923C619.903 158.553 620.373 159.043 621.003 159.383C621.623 159.723 622.343 159.903 623.143 159.903C623.813 159.903 624.433 159.783 624.993 159.553C625.553 159.323 626.043 158.963 626.443 158.493L627.903 159.983C627.333 160.653 626.633 161.163 625.803 161.523C624.973 161.873 624.083 162.053 623.143 162.053Z" fill="#FF4453"/>
<path d="M636.754 161.793V144.303H639.124V161.793H636.754ZM638.314 161.793V159.623H643.174C644.464 159.623 645.604 159.343 646.574 158.783C647.544 158.223 648.304 157.443 648.854 156.453C649.404 155.463 649.674 154.323 649.674 153.023C649.674 151.743 649.394 150.613 648.844 149.623C648.294 148.633 647.524 147.863 646.554 147.303C645.584 146.753 644.454 146.473 643.174 146.473H638.334V144.303H643.224C644.504 144.303 645.684 144.523 646.764 144.963C647.844 145.403 648.784 146.013 649.584 146.803C650.384 147.593 651.004 148.513 651.444 149.573C651.884 150.633 652.114 151.793 652.114 153.053C652.114 154.293 651.894 155.453 651.444 156.513C650.994 157.583 650.384 158.503 649.594 159.293C648.804 160.083 647.864 160.693 646.784 161.133C645.704 161.573 644.524 161.793 643.264 161.793H638.314Z" fill="#FF4453"/>
<path d="M660.534 162.053C659.344 162.053 658.264 161.783 657.304 161.233C656.344 160.683 655.594 159.943 655.034 159.003C654.484 158.063 654.204 156.993 654.204 155.803C654.204 154.623 654.474 153.573 655.024 152.633C655.574 151.693 656.314 150.953 657.244 150.403C658.174 149.853 659.224 149.583 660.384 149.583C661.494 149.583 662.474 149.833 663.324 150.343C664.174 150.843 664.834 151.543 665.314 152.433C665.794 153.323 666.034 154.333 666.034 155.453C666.034 155.623 666.024 155.803 666.004 155.993C665.984 156.183 665.954 156.413 665.904 156.663H655.804V154.773H664.694L663.864 155.503C663.864 154.693 663.724 154.013 663.434 153.453C663.144 152.893 662.744 152.453 662.224 152.143C661.704 151.833 661.074 151.673 660.334 151.673C659.564 151.673 658.884 151.843 658.294 152.173C657.704 152.513 657.254 152.983 656.934 153.583C656.614 154.183 656.454 154.903 656.454 155.723C656.454 156.563 656.624 157.293 656.954 157.923C657.294 158.553 657.764 159.043 658.394 159.383C659.014 159.723 659.734 159.903 660.534 159.903C661.204 159.903 661.824 159.783 662.384 159.553C662.944 159.323 663.434 158.963 663.834 158.493L665.294 159.983C664.724 160.653 664.024 161.163 663.194 161.523C662.364 161.873 661.474 162.053 660.534 162.053Z" fill="#FF4453"/>
<path d="M668.494 161.793V143.803H670.764V161.793H668.494Z" fill="#FF4453"/>
<path d="M679.634 162.053C678.444 162.053 677.364 161.783 676.404 161.233C675.444 160.683 674.694 159.943 674.134 159.003C673.584 158.063 673.304 156.993 673.304 155.803C673.304 154.623 673.574 153.573 674.124 152.633C674.674 151.693 675.414 150.953 676.344 150.403C677.274 149.853 678.324 149.583 679.484 149.583C680.594 149.583 681.574 149.833 682.424 150.343C683.274 150.843 683.934 151.543 684.414 152.433C684.894 153.323 685.134 154.333 685.134 155.453C685.134 155.623 685.124 155.803 685.104 155.993C685.084 156.183 685.054 156.413 685.004 156.663H674.904V154.773H683.794L682.964 155.503C682.964 154.693 682.824 154.013 682.534 153.453C682.244 152.893 681.844 152.453 681.324 152.143C680.804 151.833 680.174 151.673 679.434 151.673C678.664 151.673 677.984 151.843 677.394 152.173C676.804 152.513 676.354 152.983 676.034 153.583C675.714 154.183 675.554 154.903 675.554 155.723C675.554 156.563 675.724 157.293 676.054 157.923C676.394 158.553 676.864 159.043 677.494 159.383C678.114 159.723 678.834 159.903 679.634 159.903C680.304 159.903 680.924 159.783 681.484 159.553C682.044 159.323 682.534 158.963 682.934 158.493L684.394 159.983C683.824 160.653 683.124 161.163 682.294 161.523C681.464 161.873 680.574 162.053 679.634 162.053Z" fill="#FF4453"/>
<path d="M692.563 161.593C691.473 161.593 690.493 161.333 689.623 160.813C688.753 160.293 688.073 159.573 687.573 158.663C687.073 157.743 686.813 156.723 686.813 155.573C686.813 154.433 687.063 153.413 687.573 152.513C688.073 151.613 688.763 150.903 689.623 150.373C690.483 149.843 691.463 149.583 692.563 149.583C693.503 149.583 694.333 149.763 695.053 150.133C695.773 150.503 696.353 151.023 696.783 151.683C697.213 152.343 697.443 153.123 697.473 154.013V157.183C697.423 158.053 697.183 158.823 696.753 159.493C696.323 160.153 695.753 160.673 695.023 161.043C694.303 161.413 693.483 161.593 692.563 161.593ZM692.563 167.063C691.333 167.063 690.253 166.833 689.303 166.383C688.353 165.933 687.593 165.293 687.023 164.473L688.483 162.983C688.973 163.603 689.553 164.083 690.223 164.403C690.893 164.733 691.693 164.893 692.613 164.893C693.843 164.893 694.813 164.573 695.523 163.923C696.233 163.273 696.593 162.403 696.593 161.313V158.343L696.993 155.643L696.593 152.973V149.823H698.863V161.313C698.863 162.453 698.603 163.453 698.073 164.313C697.543 165.173 696.803 165.843 695.853 166.333C694.903 166.823 693.803 167.063 692.563 167.063ZM693.013 159.453C693.753 159.453 694.403 159.293 694.963 158.973C695.523 158.653 695.963 158.203 696.263 157.623C696.563 157.043 696.713 156.363 696.713 155.593C696.713 154.823 696.553 154.143 696.243 153.563C695.933 152.983 695.503 152.533 694.943 152.203C694.383 151.873 693.733 151.713 692.983 151.713C692.223 151.713 691.563 151.873 690.993 152.203C690.423 152.533 689.973 152.983 689.643 153.563C689.313 154.143 689.153 154.813 689.153 155.563C689.153 156.323 689.313 156.993 689.643 157.583C689.973 158.173 690.423 158.633 691.003 158.953C691.593 159.293 692.253 159.453 693.013 159.453Z" fill="#FF4453"/>
<path d="M707.274 162.053C706.184 162.053 705.194 161.783 704.304 161.233C703.414 160.683 702.714 159.943 702.204 159.003C701.694 158.063 701.434 157.003 701.434 155.833C701.434 154.663 701.694 153.603 702.204 152.663C702.714 151.723 703.414 150.973 704.294 150.423C705.174 149.873 706.174 149.593 707.284 149.593C708.194 149.593 709.004 149.783 709.714 150.163C710.424 150.543 711.004 151.063 711.444 151.723C711.884 152.383 712.124 153.153 712.174 154.033V157.633C712.124 158.493 711.884 159.253 711.454 159.923C711.024 160.593 710.454 161.123 709.744 161.493C709.014 161.863 708.194 162.053 707.274 162.053ZM707.654 159.903C708.784 159.903 709.684 159.523 710.374 158.753C711.064 157.993 711.404 157.013 711.404 155.813C711.404 154.993 711.244 154.273 710.934 153.663C710.624 153.053 710.184 152.573 709.614 152.223C709.044 151.883 708.384 151.703 707.624 151.703C706.864 151.703 706.204 151.883 705.624 152.233C705.044 152.583 704.594 153.073 704.264 153.683C703.934 154.293 703.774 154.993 703.774 155.783C703.774 156.593 703.934 157.303 704.264 157.913C704.594 158.523 705.054 159.013 705.634 159.363C706.224 159.733 706.894 159.903 707.654 159.903ZM711.254 161.793V158.563L711.684 155.643L711.254 152.743V149.823H713.544V161.793H711.254Z" fill="#FF4453"/>
<path d="M715.694 151.893V149.823H723.854V151.893H715.694ZM718.634 161.793V144.813H720.904V161.793H718.634Z" fill="#FF4453"/>
<path d="M727.224 147.433C726.804 147.433 726.464 147.293 726.194 147.013C725.924 146.733 725.794 146.383 725.794 145.963C725.794 145.563 725.924 145.223 726.194 144.943C726.464 144.663 726.804 144.523 727.224 144.523C727.644 144.523 727.984 144.663 728.254 144.943C728.524 145.223 728.654 145.563 728.654 145.963C728.654 146.383 728.524 146.733 728.254 147.013C727.984 147.293 727.644 147.433 727.224 147.433ZM726.094 161.793V149.823H728.364V161.793H726.094Z" fill="#FF4453"/>
<path d="M737.184 162.053C736.004 162.053 734.954 161.773 734.014 161.223C733.074 160.673 732.324 159.913 731.774 158.973C731.224 158.023 730.944 156.963 730.944 155.783C730.944 154.623 731.224 153.573 731.774 152.643C732.324 151.713 733.074 150.963 734.014 150.413C734.954 149.863 736.014 149.583 737.184 149.583C738.344 149.583 739.394 149.853 740.344 150.403C741.294 150.953 742.044 151.693 742.604 152.633C743.164 153.573 743.434 154.623 743.434 155.783C743.434 156.963 743.154 158.023 742.604 158.973C742.054 159.923 741.294 160.673 740.344 161.223C739.394 161.773 738.344 162.053 737.184 162.053ZM737.184 159.853C737.944 159.853 738.614 159.673 739.204 159.323C739.794 158.973 740.254 158.483 740.594 157.873C740.934 157.263 741.094 156.563 741.094 155.773C741.094 155.003 740.924 154.313 740.574 153.703C740.234 153.103 739.764 152.623 739.184 152.283C738.604 151.943 737.934 151.763 737.184 151.763C736.424 151.763 735.754 151.933 735.164 152.283C734.574 152.623 734.114 153.103 733.774 153.703C733.434 154.303 733.274 154.993 733.274 155.773C733.274 156.563 733.444 157.263 733.774 157.873C734.114 158.483 734.574 158.973 735.164 159.323C735.754 159.683 736.424 159.853 737.184 159.853Z" fill="#FF4453"/>
<path d="M745.974 161.793V149.823H748.244V161.793H745.974ZM754.444 161.793V154.813C754.444 153.903 754.154 153.163 753.584 152.573C753.014 151.983 752.274 151.693 751.364 151.693C750.764 151.693 750.224 151.823 749.754 152.093C749.284 152.363 748.914 152.733 748.644 153.203C748.374 153.673 748.244 154.213 748.244 154.813L747.314 154.283C747.314 153.373 747.514 152.573 747.914 151.863C748.314 151.153 748.884 150.603 749.604 150.183C750.324 149.773 751.144 149.563 752.044 149.563C752.954 149.563 753.754 149.793 754.454 150.243C755.154 150.693 755.704 151.293 756.104 152.023C756.504 152.753 756.704 153.533 756.704 154.353V161.783H754.444V161.793Z" fill="#FF4453"/>
<path d="M290.314 125.783C290.554 126.503 291.094 127.292 291.934 128.122C292.774 128.962 294.034 129.383 295.724 129.383H314.674C315.754 129.383 316.684 128.993 317.474 128.213C318.254 127.433 318.644 126.563 318.644 125.593C318.644 124.993 318.524 124.453 318.284 123.973L275.514 7.9425C275.034 6.6225 274.254 5.48251 273.164 4.51251C272.084 3.55251 270.574 3.07251 268.654 3.07251H245.554C243.624 3.07251 242.124 3.55251 241.044 4.51251C239.964 5.47251 239.244 6.6225 238.874 7.9425L195.924 123.973C195.804 124.453 195.744 124.993 195.744 125.593C195.744 126.553 196.104 127.423 196.824 128.213C197.544 128.993 198.444 129.383 199.534 129.383H218.484C220.284 129.383 221.584 128.962 222.364 128.122C223.144 127.282 223.714 126.503 224.074 125.783L257.094 30.5025L290.314 125.783Z" fill="#2B2E5F"/>
<path d="M338.314 129.383C337.114 129.383 336.084 128.962 335.244 128.122C334.404 127.282 333.984 126.202 333.984 124.872V7.57251C333.984 6.25251 334.404 5.16251 335.244 4.32251C336.084 3.48251 337.104 3.0625 338.314 3.0625H359.064C360.264 3.0625 361.284 3.48251 362.134 4.32251C362.974 5.16251 363.394 6.25251 363.394 7.57251V124.872C363.394 126.202 362.974 127.282 362.134 128.122C361.294 128.962 360.264 129.383 359.064 129.383H338.314Z" fill="#2B2E5F"/>
<path d="M394.615 129.383C393.285 129.383 392.205 128.962 391.365 128.122C390.525 127.282 390.104 126.202 390.104 124.872V7.57251C390.104 6.25251 390.525 5.16251 391.365 4.32251C392.205 3.48251 393.285 3.0625 394.615 3.0625H411.574C413.374 3.0625 414.735 3.5425 415.635 4.5025C416.535 5.4625 417.104 6.19255 417.344 6.67255L450.724 67.6625L484.104 6.67255C484.344 6.19255 484.915 5.4725 485.815 4.5025C486.715 3.5425 488.075 3.0625 489.875 3.0625H506.654C507.974 3.0625 509.064 3.48251 509.904 4.32251C510.744 5.16251 511.164 6.25251 511.164 7.57251V124.872C511.164 126.202 510.744 127.282 509.904 128.122C509.064 128.962 507.974 129.383 506.654 129.383H488.245C487.045 129.383 486.014 128.962 485.174 128.122C484.334 127.282 483.914 126.202 483.914 124.872V52.1525L460.995 94.9225C460.515 96.0025 459.794 96.9725 458.824 97.8125C457.864 98.6525 456.534 99.0725 454.854 99.0725H446.375C444.815 99.0725 443.544 98.6525 442.584 97.8125C441.624 96.9725 440.834 96.0125 440.234 94.9225L417.495 52.1525V124.872C417.495 126.202 417.074 127.282 416.234 128.122C415.394 128.962 414.304 129.383 412.984 129.383H394.615Z" fill="#2B2E5F"/>
<path d="M542.225 129.383C541.025 129.383 539.995 128.962 539.155 128.122C538.315 127.282 537.895 126.202 537.895 124.872V7.57251C537.895 6.25251 538.315 5.16251 539.155 4.32251C539.995 3.48251 541.015 3.0625 542.225 3.0625H624.155C625.475 3.0625 626.565 3.48251 627.405 4.32251C628.245 5.16251 628.665 6.25251 628.665 7.57251V22.0125C628.665 23.3425 628.245 24.4225 627.405 25.2625C626.565 26.1025 625.475 26.5225 624.155 26.5225H565.685V54.6725H620.185C621.505 54.6725 622.595 55.0926 623.435 55.9326C624.275 56.7726 624.695 57.8626 624.695 59.1826V72.5325C624.695 73.7325 624.275 74.7925 623.435 75.6925C622.595 76.5925 621.505 77.0425 620.185 77.0425H565.685V105.913H625.595C626.915 105.913 628.005 106.333 628.845 107.173C629.685 108.013 630.105 109.103 630.105 110.423V124.863C630.105 126.193 629.685 127.273 628.845 128.113C628.005 128.953 626.915 129.372 625.595 129.372H542.225V129.383Z" fill="#2B2E5F"/>
<path d="M656.084 129.383C654.884 129.383 653.854 128.962 653.014 128.122C652.174 127.282 651.754 126.202 651.754 124.872V7.57251C651.754 6.25251 652.174 5.16251 653.014 4.32251C653.854 3.48251 654.874 3.0625 656.084 3.0625H701.564C713.594 3.0625 723.634 4.96255 731.704 8.74255C739.764 12.5326 745.924 18.0625 750.204 25.3425C754.474 32.6225 756.724 41.6125 756.974 52.3225C757.214 57.6225 757.334 62.2525 757.334 66.2225C757.334 70.1925 757.214 74.7626 756.974 79.9326C756.614 91.1226 754.384 100.383 750.294 107.723C746.204 115.063 740.214 120.503 732.334 124.053C724.454 127.603 714.494 129.372 702.464 129.372H656.084V129.383ZM680.444 105.933H701.554C707.564 105.933 712.474 105.062 716.264 103.312C720.054 101.572 722.914 98.7425 724.834 94.8325C726.754 90.9225 727.784 85.8425 727.904 79.5825C728.024 76.0925 728.114 72.9625 728.174 70.2025C728.234 67.4325 728.234 64.6725 728.174 61.9025C728.114 59.1325 728.024 56.0725 727.904 52.7025C727.664 43.6825 725.344 37.0625 720.954 32.8525C716.564 28.6425 709.794 26.5325 700.654 26.5325H680.444V105.933Z" fill="#2B2E5F"/>
<path d="M16.2838 35.5927H4.88379V2.24268H38.2338V13.6326H16.2838V35.5927Z" fill="#2B2E5F"/>
<path d="M163.413 35.5927H152.023V13.6326H130.063V2.24268H163.413V35.5927Z" fill="#2B2E5F"/>
<path d="M38.2338 160.773H4.88379V127.423H16.2838V149.373H38.2338V160.773Z" fill="#2B2E5F"/>
<path d="M163.413 160.773H130.063V149.373H152.023V127.423H163.413V160.773Z" fill="#2B2E5F"/>
<path d="M108.633 21.9126L84.1535 46.8526L59.6735 21.9126L50.0635 31.3526L84.1535 66.0726L118.243 31.3526L108.633 21.9126Z" fill="#FF4453"/>
<path d="M86.6636 25.5395C93.0279 24.163 97.0713 17.8879 95.6948 11.5236C94.3182 5.1593 88.0431 1.11594 81.6788 2.49246C75.3145 3.86898 71.2712 10.1441 72.6477 16.5084C74.0242 22.8727 80.2993 26.916 86.6636 25.5395Z" fill="#FF4453"/>
<path d="M108.633 141.103L84.1535 116.163L59.6735 141.103L50.0635 131.663L84.1535 96.9426L118.243 131.663L108.633 141.103Z" fill="#FF7957"/>
<path d="M92.8162 157.03C97.2472 152.258 96.9712 144.798 92.1996 140.367C87.428 135.936 79.9678 136.212 75.5368 140.983C71.1057 145.755 71.3818 153.215 76.1534 157.646C80.925 162.077 88.3852 161.801 92.8162 157.03Z" fill="#FF7957"/>
<path d="M143.744 105.993L118.804 81.5126L143.744 57.0226L134.314 47.4126L99.584 81.5126L134.314 115.603L143.744 105.993Z" fill="#FFD541"/>
<path d="M159.951 89.8397C164.555 85.2354 164.555 77.7705 159.951 73.1662C155.346 68.562 147.881 68.562 143.277 73.1662C138.673 77.7705 138.673 85.2354 143.277 89.8396C147.881 94.4439 155.346 94.4439 159.951 89.8397Z" fill="#FFD541"/>
<path d="M91.4406 88.798C95.4708 84.7678 95.4708 78.2336 91.4406 74.2034C87.4104 70.1733 80.8763 70.1733 76.8461 74.2035C72.8159 78.2336 72.8159 84.7678 76.8461 88.798C80.8762 92.8281 87.4104 92.8282 91.4406 88.798Z" fill="#2B2E5F"/>
<path d="M24.5635 105.993L49.5035 81.5126L24.5635 57.0226L33.9935 47.4126L68.7135 81.5126L33.9935 115.603L24.5635 105.993Z" fill="#00C3AC"/>
<path d="M25.0101 89.8352C29.6144 85.231 29.6143 77.766 25.0101 73.1618C20.4059 68.5576 12.941 68.5576 8.33671 73.1618C3.73248 77.7661 3.73246 85.231 8.33669 89.8352C12.9409 94.4395 20.4059 94.4395 25.0101 89.8352Z" fill="#00C3AC"/>
</g>
<defs>
<clipPath id="clip0_1132_2">
<rect width="757" height="167" fill="white"/>
</clipPath>
</defs>
</svg>
