<?xml version="1.0" encoding="UTF-8"?>
<svg xmlns="http://www.w3.org/2000/svg" version="1.1" width="300" height="300" viewBox="0 0 300 300"><rect x="0" y="0" width="300" height="300" fill="#ffffff"/><g transform="scale(9.091)"><g transform="translate(0,0)"><path fill-rule="evenodd" d="M9 0L9 1L8 1L8 2L9 2L9 3L8 3L8 4L10 4L10 7L11 7L11 4L12 4L12 5L13 5L13 6L12 6L12 9L13 9L13 8L14 8L14 9L15 9L15 8L16 8L16 10L15 10L15 11L14 11L14 12L15 12L15 13L12 13L12 11L13 11L13 10L11 10L11 11L10 11L10 9L11 9L11 8L6 8L6 9L7 9L7 10L6 10L6 11L5 11L5 10L3 10L3 9L5 9L5 8L0 8L0 9L2 9L2 12L1 12L1 11L0 11L0 12L1 12L1 14L2 14L2 17L3 17L3 18L2 18L2 19L3 19L3 20L1 20L1 19L0 19L0 25L1 25L1 22L2 22L2 21L3 21L3 20L4 20L4 21L8 21L8 18L9 18L9 21L12 21L12 22L13 22L13 23L12 23L12 25L13 25L13 24L14 24L14 25L16 25L16 24L14 24L14 23L16 23L16 22L17 22L17 23L18 23L18 24L17 24L17 25L18 25L18 24L19 24L19 23L18 23L18 22L20 22L20 23L21 23L21 24L20 24L20 25L19 25L19 26L20 26L20 27L21 27L21 28L20 28L20 29L18 29L18 28L16 28L16 29L18 29L18 30L20 30L20 32L17 32L17 33L20 33L20 32L22 32L22 30L23 30L23 31L27 31L27 32L23 32L23 33L27 33L27 32L28 32L28 31L27 31L27 30L29 30L29 26L30 26L30 28L31 28L31 27L32 27L32 29L30 29L30 30L33 30L33 27L32 27L32 26L33 26L33 23L31 23L31 22L29 22L29 23L27 23L27 24L26 24L26 23L24 23L24 26L23 26L23 25L21 25L21 24L22 24L22 23L21 23L21 22L22 22L22 21L21 21L21 22L20 22L20 20L22 20L22 19L21 19L21 18L20 18L20 17L21 17L21 16L22 16L22 15L21 15L21 16L20 16L20 15L18 15L18 14L17 14L17 15L18 15L18 16L17 16L17 17L16 17L16 18L15 18L15 19L14 19L14 20L15 20L15 21L12 21L12 19L13 19L13 18L9 18L9 17L10 17L10 15L11 15L11 13L12 13L12 14L13 14L13 15L12 15L12 17L13 17L13 16L14 16L14 17L15 17L15 16L16 16L16 14L15 14L15 13L16 13L16 12L15 12L15 11L16 11L16 10L17 10L17 11L18 11L18 12L17 12L17 13L18 13L18 12L19 12L19 10L20 10L20 9L21 9L21 12L20 12L20 13L19 13L19 14L20 14L20 13L21 13L21 14L22 14L22 13L21 13L21 12L23 12L23 14L24 14L24 15L23 15L23 16L24 16L24 17L22 17L22 18L25 18L25 14L26 14L26 16L27 16L27 17L26 17L26 18L27 18L27 19L26 19L26 20L25 20L25 19L23 19L23 20L25 20L25 21L26 21L26 22L27 22L27 21L26 21L26 20L27 20L27 19L28 19L28 18L27 18L27 17L30 17L30 18L29 18L29 19L30 19L30 20L28 20L28 21L30 21L30 20L31 20L31 19L32 19L32 20L33 20L33 19L32 19L32 18L33 18L33 16L32 16L32 14L33 14L33 13L32 13L32 12L31 12L31 11L30 11L30 12L27 12L27 11L26 11L26 12L27 12L27 13L25 13L25 12L23 12L23 10L24 10L24 11L25 11L25 9L26 9L26 10L28 10L28 8L27 8L27 9L26 9L26 8L25 8L25 5L24 5L24 4L25 4L25 3L24 3L24 4L23 4L23 2L22 2L22 0L21 0L21 2L20 2L20 4L19 4L19 1L20 1L20 0L18 0L18 1L17 1L17 0L15 0L15 1L17 1L17 2L16 2L16 3L17 3L17 5L16 5L16 4L12 4L12 2L13 2L13 1L11 1L11 2L10 2L10 0ZM23 0L23 1L24 1L24 2L25 2L25 1L24 1L24 0ZM14 2L14 3L15 3L15 2ZM17 2L17 3L18 3L18 2ZM10 3L10 4L11 4L11 3ZM21 3L21 4L20 4L20 5L17 5L17 8L18 8L18 6L19 6L19 7L20 7L20 8L19 8L19 9L20 9L20 8L21 8L21 9L22 9L22 10L23 10L23 9L24 9L24 8L23 8L23 7L24 7L24 5L23 5L23 7L22 7L22 6L21 6L21 4L22 4L22 3ZM8 5L8 7L9 7L9 5ZM13 6L13 7L14 7L14 8L15 8L15 7L16 7L16 6L15 6L15 7L14 7L14 6ZM20 6L20 7L21 7L21 8L22 8L22 9L23 9L23 8L22 8L22 7L21 7L21 6ZM29 8L29 9L30 9L30 10L31 10L31 9L32 9L32 10L33 10L33 9L32 9L32 8L31 8L31 9L30 9L30 8ZM8 9L8 10L9 10L9 9ZM17 9L17 10L18 10L18 9ZM3 11L3 12L4 12L4 13L2 13L2 14L3 14L3 17L4 17L4 13L5 13L5 15L6 15L6 16L7 16L7 15L8 15L8 14L10 14L10 13L11 13L11 12L10 12L10 13L9 13L9 11L6 11L6 12L5 12L5 11ZM6 12L6 13L7 13L7 14L6 14L6 15L7 15L7 14L8 14L8 12ZM30 12L30 13L27 13L27 14L28 14L28 15L27 15L27 16L28 16L28 15L29 15L29 16L30 16L30 17L31 17L31 18L32 18L32 16L30 16L30 15L31 15L31 14L32 14L32 13L31 13L31 12ZM0 15L0 16L1 16L1 15ZM14 15L14 16L15 16L15 15ZM8 16L8 17L5 17L5 19L6 19L6 20L7 20L7 19L6 19L6 18L8 18L8 17L9 17L9 16ZM18 16L18 17L17 17L17 19L15 19L15 20L18 20L18 21L19 21L19 20L20 20L20 18L18 18L18 17L20 17L20 16ZM3 18L3 19L4 19L4 18ZM10 19L10 20L11 20L11 19ZM15 21L15 22L16 22L16 21ZM23 21L23 22L24 22L24 21ZM32 21L32 22L33 22L33 21ZM3 22L3 24L4 24L4 25L7 25L7 24L8 24L8 22L6 22L6 23L5 23L5 24L4 24L4 22ZM9 22L9 23L10 23L10 25L8 25L8 27L9 27L9 26L10 26L10 28L8 28L8 33L10 33L10 31L11 31L11 30L10 30L10 28L11 28L11 29L12 29L12 30L13 30L13 31L12 31L12 33L13 33L13 32L14 32L14 33L16 33L16 32L14 32L14 31L16 31L16 30L15 30L15 29L12 29L12 27L13 27L13 26L10 26L10 25L11 25L11 22ZM6 23L6 24L7 24L7 23ZM29 23L29 25L30 25L30 26L31 26L31 25L32 25L32 24L30 24L30 23ZM20 25L20 26L21 26L21 27L23 27L23 26L21 26L21 25ZM25 25L25 28L28 28L28 25ZM15 26L15 27L14 27L14 28L15 28L15 27L16 27L16 26ZM26 26L26 27L27 27L27 26ZM21 28L21 29L20 29L20 30L21 30L21 29L23 29L23 30L24 30L24 28ZM26 29L26 30L27 30L27 29ZM29 31L29 33L30 33L30 32L31 32L31 33L32 33L32 32L31 32L31 31ZM0 0L0 7L7 7L7 0ZM1 1L1 6L6 6L6 1ZM2 2L2 5L5 5L5 2ZM26 0L26 7L33 7L33 0ZM27 1L27 6L32 6L32 1ZM28 2L28 5L31 5L31 2ZM0 26L0 33L7 33L7 26ZM1 27L1 32L6 32L6 27ZM2 28L2 31L5 31L5 28Z" fill="#000000"/></g></g></svg>
