<?xml version="1.0" encoding="UTF-8"?>
<svg xmlns="http://www.w3.org/2000/svg" version="1.1" width="300" height="300" viewBox="0 0 300 300"><rect x="0" y="0" width="300" height="300" fill="#ffffff"/><g transform="scale(9.091)"><g transform="translate(0,0)"><path fill-rule="evenodd" d="M10 0L10 2L11 2L11 0ZM12 0L12 1L13 1L13 2L12 2L12 4L13 4L13 3L14 3L14 4L15 4L15 3L16 3L16 5L15 5L15 6L14 6L14 8L15 8L15 9L12 9L12 7L13 7L13 5L11 5L11 6L10 6L10 4L11 4L11 3L8 3L8 4L9 4L9 5L8 5L8 7L9 7L9 8L6 8L6 9L10 9L10 11L11 11L11 9L12 9L12 10L13 10L13 11L12 11L12 13L13 13L13 12L14 12L14 13L16 13L16 14L15 14L15 15L14 15L14 16L15 16L15 17L12 17L12 15L13 15L13 14L11 14L11 16L10 16L10 14L9 14L9 13L11 13L11 12L6 12L6 11L8 11L8 10L6 10L6 11L5 11L5 10L4 10L4 9L5 9L5 8L0 8L0 9L2 9L2 10L0 10L0 11L2 11L2 12L3 12L3 14L4 14L4 12L5 12L5 14L6 14L6 15L4 15L4 16L3 16L3 15L2 15L2 16L1 16L1 17L0 17L0 18L1 18L1 19L2 19L2 18L1 18L1 17L4 17L4 18L3 18L3 19L5 19L5 21L3 21L3 20L2 20L2 21L0 21L0 25L1 25L1 22L3 22L3 23L4 23L4 24L5 24L5 25L8 25L8 27L9 27L9 28L8 28L8 33L9 33L9 32L10 32L10 31L11 31L11 33L12 33L12 31L13 31L13 30L9 30L9 28L10 28L10 29L11 29L11 28L10 28L10 27L9 27L9 25L10 25L10 26L11 26L11 25L12 25L12 26L13 26L13 27L12 27L12 29L13 29L13 28L14 28L14 29L16 29L16 28L14 28L14 27L16 27L16 26L17 26L17 25L18 25L18 26L20 26L20 27L21 27L21 28L20 28L20 29L19 29L19 28L17 28L17 29L18 29L18 30L17 30L17 31L18 31L18 32L16 32L16 33L19 33L19 30L20 30L20 29L21 29L21 28L24 28L24 29L23 29L23 30L21 30L21 32L20 32L20 33L21 33L21 32L23 32L23 33L26 33L26 31L27 31L27 32L28 32L28 31L27 31L27 30L29 30L29 26L30 26L30 28L32 28L32 29L30 29L30 30L33 30L33 27L32 27L32 26L33 26L33 23L31 23L31 21L30 21L30 20L31 20L31 19L32 19L32 20L33 20L33 19L32 19L32 18L33 18L33 16L32 16L32 14L33 14L33 13L32 13L32 12L31 12L31 11L30 11L30 12L27 12L27 11L26 11L26 12L27 12L27 13L25 13L25 10L24 10L24 9L26 9L26 10L28 10L28 8L27 8L27 9L26 9L26 8L24 8L24 9L23 9L23 10L24 10L24 11L23 11L23 12L24 12L24 13L22 13L22 14L24 14L24 15L25 15L25 14L26 14L26 16L27 16L27 17L26 17L26 18L27 18L27 19L26 19L26 20L25 20L25 16L23 16L23 18L24 18L24 19L23 19L23 20L24 20L24 21L21 21L21 20L22 20L22 19L21 19L21 20L20 20L20 19L18 19L18 18L20 18L20 17L21 17L21 18L22 18L22 17L21 17L21 16L22 16L22 15L21 15L21 16L20 16L20 17L18 17L18 16L15 16L15 15L17 15L17 13L18 13L18 14L20 14L20 13L21 13L21 12L22 12L22 11L21 11L21 12L20 12L20 11L18 11L18 10L17 10L17 11L16 11L16 10L15 10L15 9L16 9L16 8L15 8L15 6L16 6L16 7L17 7L17 6L18 6L18 8L17 8L17 9L18 9L18 8L19 8L19 5L20 5L20 9L19 9L19 10L20 10L20 9L21 9L21 10L22 10L22 9L21 9L21 8L23 8L23 5L24 5L24 7L25 7L25 5L24 5L24 4L25 4L25 2L24 2L24 4L23 4L23 3L22 3L22 2L23 2L23 1L24 1L24 0L21 0L21 3L22 3L22 4L21 4L21 5L20 5L20 4L19 4L19 3L20 3L20 2L18 2L18 3L17 3L17 1L20 1L20 0L17 0L17 1L16 1L16 0L15 0L15 1L14 1L14 0ZM8 1L8 2L9 2L9 1ZM14 2L14 3L15 3L15 2ZM17 4L17 5L16 5L16 6L17 6L17 5L18 5L18 4ZM22 4L22 5L23 5L23 4ZM9 6L9 7L10 7L10 6ZM11 6L11 7L12 7L12 6ZM21 6L21 7L22 7L22 6ZM10 8L10 9L11 9L11 8ZM29 8L29 9L30 9L30 10L31 10L31 9L32 9L32 10L33 10L33 9L32 9L32 8L31 8L31 9L30 9L30 8ZM2 10L2 11L4 11L4 10ZM14 11L14 12L15 12L15 11ZM17 11L17 12L16 12L16 13L17 13L17 12L18 12L18 13L20 13L20 12L18 12L18 11ZM0 12L0 15L1 15L1 12ZM30 12L30 13L27 13L27 14L28 14L28 15L27 15L27 16L28 16L28 15L29 15L29 16L30 16L30 17L27 17L27 18L28 18L28 19L27 19L27 20L26 20L26 21L27 21L27 22L26 22L26 23L24 23L24 22L21 22L21 21L20 21L20 20L18 20L18 19L17 19L17 20L15 20L15 19L14 19L14 20L13 20L13 21L12 21L12 19L13 19L13 18L12 18L12 17L10 17L10 18L9 18L9 19L6 19L6 18L8 18L8 17L5 17L5 16L4 16L4 17L5 17L5 19L6 19L6 20L7 20L7 21L5 21L5 22L4 22L4 23L5 23L5 24L8 24L8 23L9 23L9 22L10 22L10 21L9 21L9 20L10 20L10 19L11 19L11 22L13 22L13 23L12 23L12 25L15 25L15 26L16 26L16 25L17 25L17 24L18 24L18 25L19 25L19 24L20 24L20 26L21 26L21 25L24 25L24 24L27 24L27 23L29 23L29 25L30 25L30 26L31 26L31 25L32 25L32 24L30 24L30 21L28 21L28 20L30 20L30 19L31 19L31 18L32 18L32 16L30 16L30 15L31 15L31 14L32 14L32 13L31 13L31 12ZM6 13L6 14L7 14L7 13ZM8 14L8 15L6 15L6 16L9 16L9 14ZM15 17L15 18L16 18L16 17ZM30 17L30 18L31 18L31 17ZM14 20L14 21L15 21L15 20ZM17 20L17 21L16 21L16 22L15 22L15 23L14 23L14 24L15 24L15 25L16 25L16 24L17 24L17 23L16 23L16 22L17 22L17 21L18 21L18 20ZM7 21L7 22L5 22L5 23L7 23L7 22L8 22L8 21ZM19 21L19 22L20 22L20 24L23 24L23 23L21 23L21 22L20 22L20 21ZM32 21L32 22L33 22L33 21ZM15 23L15 24L16 24L16 23ZM2 24L2 25L3 25L3 24ZM25 25L25 28L28 28L28 25ZM22 26L22 27L23 27L23 26ZM26 26L26 27L27 27L27 26ZM24 29L24 30L23 30L23 31L24 31L24 32L25 32L25 31L26 31L26 30L27 30L27 29L26 29L26 30L25 30L25 29ZM15 30L15 31L14 31L14 32L15 32L15 31L16 31L16 30ZM24 30L24 31L25 31L25 30ZM29 31L29 33L30 33L30 32L31 32L31 33L32 33L32 32L31 32L31 31ZM0 0L0 7L7 7L7 0ZM1 1L1 6L6 6L6 1ZM2 2L2 5L5 5L5 2ZM26 0L26 7L33 7L33 0ZM27 1L27 6L32 6L32 1ZM28 2L28 5L31 5L31 2ZM0 26L0 33L7 33L7 26ZM1 27L1 32L6 32L6 27ZM2 28L2 31L5 31L5 28Z" fill="#000000"/></g></g></svg>
