<?xml version="1.0" encoding="UTF-8"?>
<svg xmlns="http://www.w3.org/2000/svg" version="1.1" width="300" height="300" viewBox="0 0 300 300"><rect x="0" y="0" width="300" height="300" fill="#ffffff"/><g transform="scale(9.091)"><g transform="translate(0,0)"><path fill-rule="evenodd" d="M8 0L8 4L10 4L10 3L11 3L11 4L12 4L12 2L11 2L11 0ZM12 0L12 1L13 1L13 2L14 2L14 1L16 1L16 3L13 3L13 5L11 5L11 6L10 6L10 7L9 7L9 5L8 5L8 7L9 7L9 8L10 8L10 7L11 7L11 6L12 6L12 8L11 8L11 9L9 9L9 10L8 10L8 9L7 9L7 8L4 8L4 9L2 9L2 8L0 8L0 9L2 9L2 10L0 10L0 11L1 11L1 12L0 12L0 13L1 13L1 12L2 12L2 13L3 13L3 15L2 15L2 14L1 14L1 15L0 15L0 19L1 19L1 18L4 18L4 19L3 19L3 21L4 21L4 20L5 20L5 23L4 23L4 24L3 24L3 22L2 22L2 24L0 24L0 25L2 25L2 24L3 24L3 25L8 25L8 26L10 26L10 25L12 25L12 26L11 26L11 27L10 27L10 30L9 30L9 31L8 31L8 33L12 33L12 32L13 32L13 33L15 33L15 32L16 32L16 33L18 33L18 31L19 31L19 29L20 29L20 31L21 31L21 33L22 33L22 32L23 32L23 33L28 33L28 32L29 32L29 33L30 33L30 32L29 32L29 31L32 31L32 30L33 30L33 28L32 28L32 26L31 26L31 29L30 29L30 30L29 30L29 28L30 28L30 25L29 25L29 24L30 24L30 23L29 23L29 22L28 22L28 21L30 21L30 22L32 22L32 21L33 21L33 19L32 19L32 13L33 13L33 12L32 12L32 13L31 13L31 14L28 14L28 13L30 13L30 11L31 11L31 10L32 10L32 9L33 9L33 8L29 8L29 9L30 9L30 10L28 10L28 13L27 13L27 11L26 11L26 12L25 12L25 11L24 11L24 10L26 10L26 9L25 9L25 8L24 8L24 9L23 9L23 5L24 5L24 7L25 7L25 4L23 4L23 5L22 5L22 7L21 7L21 6L20 6L20 5L21 5L21 3L25 3L25 0L23 0L23 1L24 1L24 2L22 2L22 1L21 1L21 0L20 0L20 1L17 1L17 0ZM9 2L9 3L10 3L10 2ZM18 2L18 3L16 3L16 4L17 4L17 5L20 5L20 3L21 3L21 2L20 2L20 3L19 3L19 2ZM15 5L15 7L16 7L16 5ZM13 6L13 8L12 8L12 9L11 9L11 10L9 10L9 11L8 11L8 10L7 10L7 9L6 9L6 10L5 10L5 9L4 9L4 10L2 10L2 12L3 12L3 11L4 11L4 13L5 13L5 14L4 14L4 15L5 15L5 14L7 14L7 15L6 15L6 16L7 16L7 15L8 15L8 14L7 14L7 13L10 13L10 14L11 14L11 16L10 16L10 17L9 17L9 18L8 18L8 17L5 17L5 19L6 19L6 20L7 20L7 21L6 21L6 22L8 22L8 20L7 20L7 19L6 19L6 18L8 18L8 19L11 19L11 18L12 18L12 17L14 17L14 16L15 16L15 17L16 17L16 18L17 18L17 19L18 19L18 21L16 21L16 22L17 22L17 23L18 23L18 25L17 25L17 24L16 24L16 23L15 23L15 25L16 25L16 28L15 28L15 27L14 27L14 29L17 29L17 26L18 26L18 25L19 25L19 27L20 27L20 29L21 29L21 31L22 31L22 30L23 30L23 29L24 29L24 26L23 26L23 28L22 28L22 29L21 29L21 27L22 27L22 26L20 26L20 21L21 21L21 23L22 23L22 22L23 22L23 21L24 21L24 22L25 22L25 23L23 23L23 24L22 24L22 25L24 25L24 24L25 24L25 23L28 23L28 24L29 24L29 23L28 23L28 22L27 22L27 21L26 21L26 19L27 19L27 20L28 20L28 19L27 19L27 17L28 17L28 18L30 18L30 17L31 17L31 15L30 15L30 17L28 17L28 16L29 16L29 15L27 15L27 17L26 17L26 18L25 18L25 16L26 16L26 14L27 14L27 13L24 13L24 12L23 12L23 11L22 11L22 12L23 12L23 13L24 13L24 14L25 14L25 15L23 15L23 14L22 14L22 13L21 13L21 14L20 14L20 9L21 9L21 10L23 10L23 9L21 9L21 7L20 7L20 6L19 6L19 7L18 7L18 6L17 6L17 7L18 7L18 8L20 8L20 9L19 9L19 10L18 10L18 9L17 9L17 8L14 8L14 6ZM27 8L27 9L28 9L28 8ZM12 9L12 10L11 10L11 11L10 11L10 13L11 13L11 12L12 12L12 13L13 13L13 14L14 14L14 15L16 15L16 16L17 16L17 17L18 17L18 18L19 18L19 17L20 17L20 19L21 19L21 21L22 21L22 18L21 18L21 17L23 17L23 20L24 20L24 21L25 21L25 20L24 20L24 19L25 19L25 18L24 18L24 17L23 17L23 15L22 15L22 14L21 14L21 17L20 17L20 15L19 15L19 12L18 12L18 11L17 11L17 9L15 9L15 11L14 11L14 9ZM6 10L6 11L7 11L7 10ZM12 11L12 12L13 12L13 13L17 13L17 11L16 11L16 12L14 12L14 11ZM5 12L5 13L7 13L7 12ZM12 15L12 16L11 16L11 17L12 17L12 16L13 16L13 15ZM18 15L18 16L19 16L19 15ZM2 16L2 17L4 17L4 16ZM14 18L14 19L12 19L12 20L10 20L10 23L9 23L9 25L10 25L10 24L12 24L12 25L13 25L13 26L14 26L14 25L13 25L13 24L14 24L14 22L15 22L15 20L16 20L16 19L15 19L15 18ZM30 19L30 21L31 21L31 20L32 20L32 19ZM0 20L0 22L1 22L1 21L2 21L2 20ZM12 20L12 21L13 21L13 20ZM19 20L19 21L20 21L20 20ZM18 22L18 23L19 23L19 22ZM5 23L5 24L8 24L8 23ZM12 23L12 24L13 24L13 23ZM31 23L31 25L32 25L32 24L33 24L33 23ZM25 25L25 28L28 28L28 25ZM26 26L26 27L27 27L27 26ZM8 27L8 29L9 29L9 27ZM12 27L12 28L11 28L11 30L10 30L10 32L12 32L12 31L13 31L13 32L14 32L14 31L15 31L15 30L13 30L13 29L12 29L12 28L13 28L13 27ZM18 28L18 29L19 29L19 28ZM25 29L25 30L24 30L24 31L26 31L26 32L27 32L27 31L28 31L28 29L27 29L27 31L26 31L26 29ZM16 30L16 32L17 32L17 31L18 31L18 30ZM19 32L19 33L20 33L20 32ZM32 32L32 33L33 33L33 32ZM0 0L0 7L7 7L7 0ZM1 1L1 6L6 6L6 1ZM2 2L2 5L5 5L5 2ZM26 0L26 7L33 7L33 0ZM27 1L27 6L32 6L32 1ZM28 2L28 5L31 5L31 2ZM0 26L0 33L7 33L7 26ZM1 27L1 32L6 32L6 27ZM2 28L2 31L5 31L5 28Z" fill="#000000"/></g></g></svg>
