<?xml version="1.0" encoding="UTF-8"?>
<svg xmlns="http://www.w3.org/2000/svg" version="1.1" width="300" height="300" viewBox="0 0 300 300"><rect x="0" y="0" width="300" height="300" fill="#ffffff"/><g transform="scale(9.091)"><g transform="translate(0,0)"><path fill-rule="evenodd" d="M9 0L9 1L8 1L8 2L9 2L9 3L8 3L8 4L10 4L10 7L11 7L11 4L12 4L12 5L13 5L13 4L16 4L16 5L15 5L15 6L14 6L14 8L13 8L13 6L12 6L12 9L16 9L16 10L14 10L14 11L15 11L15 13L16 13L16 14L15 14L15 16L13 16L13 15L14 15L14 14L13 14L13 13L14 13L14 12L13 12L13 13L12 13L12 11L13 11L13 10L11 10L11 11L10 11L10 9L11 9L11 8L6 8L6 9L5 9L5 8L0 8L0 10L1 10L1 11L0 11L0 12L1 12L1 13L2 13L2 12L1 12L1 11L2 11L2 10L3 10L3 9L4 9L4 12L6 12L6 13L8 13L8 12L9 12L9 13L10 13L10 14L11 14L11 13L12 13L12 14L13 14L13 15L12 15L12 17L13 17L13 18L11 18L11 15L10 15L10 17L9 17L9 16L8 16L8 18L6 18L6 17L7 17L7 16L6 16L6 15L9 15L9 14L6 14L6 15L5 15L5 19L4 19L4 20L3 20L3 18L0 18L0 19L1 19L1 20L0 20L0 25L1 25L1 20L3 20L3 21L4 21L4 22L5 22L5 23L4 23L4 24L3 24L3 23L2 23L2 24L3 24L3 25L8 25L8 27L10 27L10 26L11 26L11 28L10 28L10 29L9 29L9 28L8 28L8 33L9 33L9 32L10 32L10 30L11 30L11 29L12 29L12 30L13 30L13 31L12 31L12 33L13 33L13 32L14 32L14 33L15 33L15 32L14 32L14 31L16 31L16 30L15 30L15 29L16 29L16 28L15 28L15 27L16 27L16 26L17 26L17 25L18 25L18 26L20 26L20 24L22 24L22 23L21 23L21 22L24 22L24 23L26 23L26 20L27 20L27 19L28 19L28 18L27 18L27 17L30 17L30 18L31 18L31 19L30 19L30 20L28 20L28 21L30 21L30 22L31 22L31 21L30 21L30 20L31 20L31 19L32 19L32 20L33 20L33 19L32 19L32 18L33 18L33 16L32 16L32 14L33 14L33 13L32 13L32 12L31 12L31 11L30 11L30 12L27 12L27 11L26 11L26 12L27 12L27 13L25 13L25 10L24 10L24 9L26 9L26 10L28 10L28 8L27 8L27 9L26 9L26 8L24 8L24 9L23 9L23 10L24 10L24 11L23 11L23 12L24 12L24 13L22 13L22 14L24 14L24 15L25 15L25 14L26 14L26 16L27 16L27 17L26 17L26 18L27 18L27 19L26 19L26 20L25 20L25 16L23 16L23 18L24 18L24 19L23 19L23 20L24 20L24 21L21 21L21 20L22 20L22 19L21 19L21 20L20 20L20 19L18 19L18 18L20 18L20 17L21 17L21 18L22 18L22 17L21 17L21 16L22 16L22 15L21 15L21 16L20 16L20 17L18 17L18 16L17 16L17 13L18 13L18 14L20 14L20 13L21 13L21 12L22 12L22 11L21 11L21 12L20 12L20 11L18 11L18 10L17 10L17 9L18 9L18 8L19 8L19 5L20 5L20 4L19 4L19 3L20 3L20 2L18 2L18 3L17 3L17 4L16 4L16 2L17 2L17 1L20 1L20 0L16 0L16 1L15 1L15 3L13 3L13 4L12 4L12 2L14 2L14 1L11 1L11 2L10 2L10 0ZM21 0L21 3L22 3L22 4L21 4L21 6L20 6L20 9L19 9L19 10L20 10L20 9L21 9L21 10L22 10L22 9L21 9L21 8L23 8L23 5L24 5L24 7L25 7L25 5L24 5L24 4L25 4L25 2L24 2L24 4L23 4L23 3L22 3L22 2L23 2L23 1L24 1L24 0ZM10 3L10 4L11 4L11 3ZM17 4L17 5L16 5L16 6L15 6L15 7L16 7L16 6L17 6L17 8L16 8L16 9L17 9L17 8L18 8L18 6L17 6L17 5L18 5L18 4ZM22 4L22 5L23 5L23 4ZM8 5L8 7L9 7L9 5ZM21 6L21 7L22 7L22 6ZM29 8L29 9L30 9L30 10L31 10L31 9L32 9L32 10L33 10L33 9L32 9L32 8L31 8L31 9L30 9L30 8ZM1 9L1 10L2 10L2 9ZM6 9L6 10L7 10L7 11L6 11L6 12L8 12L8 11L9 11L9 9L8 9L8 10L7 10L7 9ZM17 11L17 12L16 12L16 13L17 13L17 12L18 12L18 13L20 13L20 12L18 12L18 11ZM10 12L10 13L11 13L11 12ZM30 12L30 13L27 13L27 14L28 14L28 15L27 15L27 16L28 16L28 15L29 15L29 16L30 16L30 17L31 17L31 18L32 18L32 16L30 16L30 15L31 15L31 14L32 14L32 13L31 13L31 12ZM4 13L4 14L5 14L5 13ZM1 14L1 16L0 16L0 17L4 17L4 16L3 16L3 15L2 15L2 14ZM15 16L15 18L16 18L16 20L14 20L14 18L13 18L13 19L12 19L12 21L11 21L11 22L9 22L9 21L10 21L10 20L9 20L9 19L11 19L11 18L9 18L9 19L5 19L5 21L6 21L6 22L7 22L7 23L6 23L6 24L8 24L8 23L9 23L9 25L10 25L10 24L11 24L11 26L13 26L13 27L12 27L12 29L15 29L15 28L14 28L14 27L15 27L15 25L14 25L14 24L15 24L15 23L14 23L14 24L13 24L13 25L12 25L12 23L13 23L13 22L12 22L12 21L14 21L14 22L16 22L16 21L17 21L17 23L16 23L16 25L17 25L17 24L18 24L18 25L19 25L19 24L20 24L20 22L21 22L21 21L20 21L20 20L18 20L18 19L17 19L17 18L16 18L16 17L17 17L17 16ZM6 20L6 21L9 21L9 20ZM17 20L17 21L18 21L18 20ZM19 21L19 22L20 22L20 21ZM32 21L32 22L33 22L33 21ZM27 23L27 24L24 24L24 25L21 25L21 26L22 26L22 27L21 27L21 28L20 28L20 27L19 27L19 28L17 28L17 29L18 29L18 30L17 30L17 31L18 31L18 32L16 32L16 33L19 33L19 30L20 30L20 31L21 31L21 32L20 32L20 33L21 33L21 32L23 32L23 33L26 33L26 31L27 31L27 32L28 32L28 31L27 31L27 30L29 30L29 26L30 26L30 28L31 28L31 27L32 27L32 26L33 26L33 23L30 23L30 24L32 24L32 25L31 25L31 26L30 26L30 25L29 25L29 23ZM25 25L25 28L28 28L28 25ZM26 26L26 27L27 27L27 26ZM22 27L22 28L21 28L21 29L20 29L20 28L19 28L19 29L20 29L20 30L23 30L23 31L24 31L24 32L25 32L25 31L26 31L26 30L27 30L27 29L26 29L26 30L25 30L25 29L24 29L24 28L23 28L23 27ZM23 29L23 30L24 30L24 31L25 31L25 30L24 30L24 29ZM30 29L30 30L31 30L31 31L29 31L29 33L30 33L30 32L31 32L31 33L32 33L32 32L31 32L31 31L32 31L32 30L31 30L31 29ZM0 0L0 7L7 7L7 0ZM1 1L1 6L6 6L6 1ZM2 2L2 5L5 5L5 2ZM26 0L26 7L33 7L33 0ZM27 1L27 6L32 6L32 1ZM28 2L28 5L31 5L31 2ZM0 26L0 33L7 33L7 26ZM1 27L1 32L6 32L6 27ZM2 28L2 31L5 31L5 28Z" fill="#000000"/></g></g></svg>
