<?xml version="1.0" encoding="UTF-8"?>
<svg xmlns="http://www.w3.org/2000/svg" version="1.1" width="300" height="300" viewBox="0 0 300 300"><rect x="0" y="0" width="300" height="300" fill="#ffffff"/><g transform="scale(9.091)"><g transform="translate(0,0)"><path fill-rule="evenodd" d="M8 0L8 4L10 4L10 3L11 3L11 4L12 4L12 2L11 2L11 0ZM12 0L12 1L13 1L13 2L15 2L15 3L13 3L13 4L14 4L14 5L11 5L11 6L10 6L10 7L9 7L9 5L8 5L8 7L9 7L9 8L10 8L10 7L11 7L11 6L12 6L12 8L11 8L11 9L9 9L9 10L8 10L8 9L7 9L7 8L4 8L4 10L5 10L5 12L4 12L4 13L3 13L3 12L2 12L2 11L3 11L3 10L2 10L2 8L0 8L0 11L1 11L1 12L0 12L0 15L2 15L2 16L1 16L1 18L0 18L0 19L1 19L1 20L2 20L2 19L3 19L3 22L2 22L2 21L0 21L0 22L2 22L2 24L0 24L0 25L2 25L2 24L3 24L3 25L7 25L7 24L8 24L8 26L9 26L9 27L8 27L8 29L10 29L10 32L11 32L11 31L12 31L12 28L13 28L13 26L15 26L15 27L14 27L14 28L15 28L15 29L13 29L13 30L14 30L14 31L15 31L15 32L14 32L14 33L15 33L15 32L16 32L16 30L17 30L17 29L18 29L18 27L17 27L17 25L18 25L18 26L19 26L19 25L20 25L20 26L21 26L21 28L20 28L20 27L19 27L19 29L20 29L20 30L21 30L21 29L22 29L22 26L21 26L21 25L23 25L23 26L24 26L24 29L23 29L23 30L22 30L22 31L21 31L21 33L22 33L22 32L23 32L23 33L25 33L25 32L26 32L26 33L28 33L28 32L29 32L29 33L30 33L30 32L29 32L29 31L32 31L32 30L33 30L33 28L32 28L32 26L31 26L31 28L32 28L32 29L30 29L30 30L29 30L29 28L30 28L30 25L29 25L29 24L30 24L30 23L31 23L31 25L32 25L32 24L33 24L33 23L31 23L31 22L32 22L32 21L33 21L33 19L32 19L32 13L33 13L33 12L32 12L32 13L31 13L31 14L28 14L28 13L30 13L30 11L31 11L31 10L32 10L32 9L33 9L33 8L29 8L29 9L30 9L30 10L28 10L28 13L27 13L27 11L26 11L26 12L25 12L25 10L26 10L26 9L25 9L25 10L24 10L24 9L23 9L23 10L22 10L22 11L21 11L21 13L20 13L20 12L18 12L18 11L17 11L17 10L16 10L16 9L12 9L12 8L13 8L13 6L14 6L14 8L15 8L15 6L14 6L14 5L15 5L15 4L16 4L16 5L17 5L17 3L18 3L18 2L20 2L20 3L19 3L19 4L20 4L20 5L18 5L18 7L17 7L17 6L16 6L16 8L17 8L17 9L20 9L20 10L21 10L21 9L22 9L22 8L23 8L23 5L24 5L24 4L25 4L25 0L23 0L23 1L24 1L24 2L22 2L22 1L21 1L21 0L20 0L20 1L17 1L17 0L14 0L14 1L13 1L13 0ZM15 1L15 2L16 2L16 1ZM20 1L20 2L21 2L21 1ZM9 2L9 3L10 3L10 2ZM20 3L20 4L22 4L22 5L20 5L20 6L19 6L19 7L18 7L18 8L20 8L20 9L21 9L21 7L22 7L22 5L23 5L23 4L22 4L22 3ZM20 6L20 7L21 7L21 6ZM24 6L24 7L25 7L25 6ZM27 8L27 9L28 9L28 8ZM5 9L5 10L7 10L7 11L6 11L6 12L7 12L7 13L6 13L6 14L5 14L5 17L4 17L4 16L2 16L2 18L1 18L1 19L2 19L2 18L5 18L5 19L4 19L4 20L5 20L5 19L6 19L6 20L9 20L9 21L4 21L4 22L7 22L7 23L6 23L6 24L7 24L7 23L8 23L8 24L10 24L10 23L8 23L8 22L9 22L9 21L10 21L10 20L9 20L9 19L8 19L8 18L7 18L7 17L9 17L9 18L10 18L10 19L11 19L11 18L12 18L12 17L16 17L16 20L14 20L14 19L15 19L15 18L13 18L13 19L12 19L12 20L11 20L11 24L12 24L12 23L13 23L13 25L16 25L16 24L17 24L17 22L16 22L16 24L15 24L15 22L14 22L14 23L13 23L13 21L17 21L17 19L18 19L18 20L19 20L19 19L20 19L20 21L19 21L19 23L18 23L18 24L20 24L20 25L21 25L21 23L20 23L20 21L21 21L21 22L22 22L22 23L23 23L23 25L24 25L24 24L26 24L26 23L28 23L28 24L29 24L29 23L30 23L30 21L31 21L31 20L32 20L32 19L30 19L30 21L28 21L28 22L26 22L26 23L23 23L23 22L22 22L22 21L21 21L21 18L24 18L24 20L23 20L23 19L22 19L22 20L23 20L23 21L24 21L24 20L25 20L25 21L26 21L26 19L27 19L27 20L28 20L28 19L27 19L27 17L28 17L28 18L30 18L30 17L31 17L31 15L30 15L30 17L28 17L28 16L29 16L29 15L27 15L27 17L26 17L26 18L25 18L25 16L26 16L26 14L27 14L27 13L24 13L24 12L23 12L23 13L21 13L21 14L22 14L22 15L23 15L23 13L24 13L24 15L25 15L25 16L23 16L23 17L21 17L21 18L20 18L20 13L16 13L16 14L19 14L19 18L18 18L18 17L17 17L17 16L16 16L16 15L14 15L14 14L13 14L13 13L15 13L15 12L16 12L16 11L15 11L15 12L14 12L14 10L13 10L13 11L12 11L12 12L11 12L11 13L10 13L10 11L11 11L11 10L12 10L12 9L11 9L11 10L9 10L9 11L8 11L8 10L7 10L7 9ZM1 12L1 14L3 14L3 13L2 13L2 12ZM8 12L8 13L7 13L7 14L6 14L6 15L8 15L8 16L9 16L9 17L10 17L10 15L8 15L8 13L9 13L9 12ZM12 12L12 13L13 13L13 12ZM12 15L12 16L11 16L11 17L12 17L12 16L13 16L13 15ZM6 16L6 17L5 17L5 18L6 18L6 19L7 19L7 18L6 18L6 17L7 17L7 16ZM12 20L12 21L13 21L13 20ZM28 22L28 23L29 23L29 22ZM4 23L4 24L5 24L5 23ZM9 25L9 26L10 26L10 27L9 27L9 28L11 28L11 26L12 26L12 25L11 25L11 26L10 26L10 25ZM25 25L25 28L28 28L28 25ZM26 26L26 27L27 27L27 26ZM15 27L15 28L16 28L16 29L17 29L17 27ZM25 29L25 30L23 30L23 31L26 31L26 32L27 32L27 31L28 31L28 29L27 29L27 31L26 31L26 29ZM18 30L18 31L17 31L17 33L18 33L18 31L19 31L19 32L20 32L20 31L19 31L19 30ZM8 31L8 33L9 33L9 31ZM12 32L12 33L13 33L13 32ZM32 32L32 33L33 33L33 32ZM0 0L0 7L7 7L7 0ZM1 1L1 6L6 6L6 1ZM2 2L2 5L5 5L5 2ZM26 0L26 7L33 7L33 0ZM27 1L27 6L32 6L32 1ZM28 2L28 5L31 5L31 2ZM0 26L0 33L7 33L7 26ZM1 27L1 32L6 32L6 27ZM2 28L2 31L5 31L5 28Z" fill="#000000"/></g></g></svg>
