<?xml version="1.0" encoding="UTF-8"?>
<svg xmlns="http://www.w3.org/2000/svg" version="1.1" width="300" height="300" viewBox="0 0 300 300"><rect x="0" y="0" width="300" height="300" fill="#ffffff"/><g transform="scale(9.091)"><g transform="translate(0,0)"><path fill-rule="evenodd" d="M8 0L8 4L9 4L9 5L8 5L8 7L9 7L9 6L10 6L10 9L11 9L11 8L12 8L12 9L13 9L13 11L12 11L12 12L11 12L11 13L10 13L10 14L9 14L9 12L10 12L10 11L11 11L11 10L9 10L9 12L8 12L8 15L7 15L7 14L5 14L5 12L6 12L6 13L7 13L7 12L6 12L6 11L8 11L8 10L4 10L4 9L7 9L7 8L4 8L4 9L2 9L2 8L0 8L0 14L1 14L1 15L2 15L2 16L0 16L0 17L1 17L1 18L0 18L0 19L1 19L1 20L2 20L2 18L3 18L3 23L2 23L2 24L0 24L0 25L2 25L2 24L4 24L4 25L5 25L5 24L4 24L4 20L6 20L6 21L5 21L5 23L7 23L7 24L6 24L6 25L7 25L7 24L9 24L9 23L10 23L10 24L12 24L12 25L13 25L13 24L12 24L12 23L14 23L14 22L15 22L15 23L16 23L16 24L15 24L15 26L14 26L14 28L13 28L13 27L12 27L12 28L10 28L10 30L11 30L11 31L10 31L10 32L9 32L9 31L8 31L8 33L11 33L11 32L12 32L12 33L14 33L14 31L15 31L15 32L16 32L16 29L15 29L15 27L16 27L16 28L17 28L17 29L18 29L18 27L19 27L19 25L20 25L20 32L19 32L19 30L17 30L17 33L18 33L18 32L19 32L19 33L20 33L20 32L21 32L21 33L22 33L22 31L24 31L24 32L23 32L23 33L25 33L25 32L26 32L26 33L28 33L28 32L29 32L29 33L30 33L30 32L29 32L29 31L32 31L32 30L33 30L33 27L32 27L32 26L31 26L31 27L32 27L32 28L31 28L31 29L30 29L30 30L29 30L29 28L30 28L30 25L29 25L29 24L30 24L30 23L29 23L29 22L28 22L28 21L30 21L30 22L32 22L32 21L33 21L33 19L32 19L32 13L33 13L33 12L32 12L32 13L31 13L31 14L28 14L28 13L30 13L30 11L31 11L31 10L32 10L32 9L33 9L33 8L29 8L29 9L30 9L30 10L28 10L28 13L27 13L27 11L26 11L26 12L24 12L24 13L23 13L23 11L24 11L24 10L26 10L26 9L25 9L25 4L24 4L24 3L23 3L23 1L24 1L24 2L25 2L25 1L24 1L24 0L23 0L23 1L22 1L22 2L21 2L21 0L20 0L20 1L19 1L19 2L17 2L17 0L13 0L13 1L11 1L11 2L12 2L12 5L13 5L13 6L12 6L12 7L11 7L11 3L10 3L10 2L9 2L9 0ZM14 1L14 2L13 2L13 3L15 3L15 2L16 2L16 3L17 3L17 5L18 5L18 4L19 4L19 5L20 5L20 3L21 3L21 7L20 7L20 6L19 6L19 7L18 7L18 6L17 6L17 7L16 7L16 5L15 5L15 7L16 7L16 9L17 9L17 7L18 7L18 8L20 8L20 9L19 9L19 11L18 11L18 12L19 12L19 11L20 11L20 13L19 13L19 14L18 14L18 13L17 13L17 12L16 12L16 13L17 13L17 14L16 14L16 15L18 15L18 17L17 17L17 16L14 16L14 15L15 15L15 14L13 14L13 15L12 15L12 16L11 16L11 18L10 18L10 17L9 17L9 16L10 16L10 15L11 15L11 14L12 14L12 13L15 13L15 10L14 10L14 11L13 11L13 12L12 12L12 13L11 13L11 14L10 14L10 15L9 15L9 16L8 16L8 17L9 17L9 18L10 18L10 19L8 19L8 18L7 18L7 17L6 17L6 16L7 16L7 15L6 15L6 16L5 16L5 17L4 17L4 13L2 13L2 12L3 12L3 11L2 11L2 10L1 10L1 11L2 11L2 12L1 12L1 13L2 13L2 14L3 14L3 17L4 17L4 19L6 19L6 20L7 20L7 21L6 21L6 22L8 22L8 21L10 21L10 20L12 20L12 21L11 21L11 22L12 22L12 21L14 21L14 20L15 20L15 21L16 21L16 22L18 22L18 21L19 21L19 24L18 24L18 25L19 25L19 24L20 24L20 25L21 25L21 27L22 27L22 26L23 26L23 28L22 28L22 29L21 29L21 30L22 30L22 29L24 29L24 31L26 31L26 32L27 32L27 31L28 31L28 29L27 29L27 31L26 31L26 29L24 29L24 26L23 26L23 25L24 25L24 24L22 24L22 25L21 25L21 23L22 23L22 22L20 22L20 21L21 21L21 19L22 19L22 18L23 18L23 17L25 17L25 16L26 16L26 14L27 14L27 13L25 13L25 14L24 14L24 15L23 15L23 13L21 13L21 10L22 10L22 11L23 11L23 10L22 10L22 9L21 9L21 7L22 7L22 8L23 8L23 7L24 7L24 5L23 5L23 3L21 3L21 2L20 2L20 3L17 3L17 2L16 2L16 1ZM13 6L13 7L12 7L12 8L13 8L13 9L15 9L15 8L14 8L14 6ZM22 6L22 7L23 7L23 6ZM27 8L27 9L28 9L28 8ZM20 9L20 10L21 10L21 9ZM4 11L4 12L5 12L5 11ZM20 13L20 19L19 19L19 18L18 18L18 19L17 19L17 17L16 17L16 18L15 18L15 17L13 17L13 16L12 16L12 17L13 17L13 18L14 18L14 19L16 19L16 20L17 20L17 21L18 21L18 19L19 19L19 21L20 21L20 19L21 19L21 17L22 17L22 14L21 14L21 13ZM27 15L27 17L26 17L26 18L24 18L24 20L22 20L22 21L24 21L24 20L25 20L25 22L24 22L24 23L25 23L25 24L27 24L27 23L28 23L28 24L29 24L29 23L28 23L28 22L27 22L27 21L26 21L26 19L27 19L27 20L28 20L28 19L27 19L27 17L28 17L28 18L29 18L29 19L30 19L30 21L31 21L31 20L32 20L32 19L30 19L30 17L31 17L31 15L30 15L30 17L28 17L28 16L29 16L29 15ZM5 17L5 18L6 18L6 19L7 19L7 20L8 20L8 19L7 19L7 18L6 18L6 17ZM12 19L12 20L13 20L13 19ZM0 21L0 22L1 22L1 21ZM25 22L25 23L26 23L26 22ZM31 23L31 25L32 25L32 24L33 24L33 23ZM8 25L8 26L10 26L10 27L11 27L11 26L10 26L10 25ZM16 25L16 26L17 26L17 27L18 27L18 26L17 26L17 25ZM25 25L25 28L28 28L28 25ZM26 26L26 27L27 27L27 26ZM8 27L8 29L9 29L9 27ZM12 28L12 29L11 29L11 30L12 30L12 29L13 29L13 30L14 30L14 29L13 29L13 28ZM12 31L12 32L13 32L13 31ZM32 32L32 33L33 33L33 32ZM0 0L0 7L7 7L7 0ZM1 1L1 6L6 6L6 1ZM2 2L2 5L5 5L5 2ZM26 0L26 7L33 7L33 0ZM27 1L27 6L32 6L32 1ZM28 2L28 5L31 5L31 2ZM0 26L0 33L7 33L7 26ZM1 27L1 32L6 32L6 27ZM2 28L2 31L5 31L5 28Z" fill="#000000"/></g></g></svg>
