<?xml version="1.0" encoding="UTF-8"?>
<svg xmlns="http://www.w3.org/2000/svg" version="1.1" width="300" height="300" viewBox="0 0 300 300"><rect x="0" y="0" width="300" height="300" fill="#ffffff"/><g transform="scale(9.091)"><g transform="translate(0,0)"><path fill-rule="evenodd" d="M10 0L10 2L11 2L11 0ZM12 0L12 1L13 1L13 2L12 2L12 4L13 4L13 3L14 3L14 4L15 4L15 5L17 5L17 6L16 6L16 8L17 8L17 9L18 9L18 8L19 8L19 5L20 5L20 9L19 9L19 10L20 10L20 9L21 9L21 10L22 10L22 9L21 9L21 8L23 8L23 5L24 5L24 7L25 7L25 5L24 5L24 4L25 4L25 2L24 2L24 4L23 4L23 3L22 3L22 2L23 2L23 1L24 1L24 0L21 0L21 3L22 3L22 4L21 4L21 5L20 5L20 4L19 4L19 3L20 3L20 2L18 2L18 3L17 3L17 4L16 4L16 2L17 2L17 1L20 1L20 0L17 0L17 1L16 1L16 0ZM8 1L8 2L9 2L9 1ZM14 2L14 3L15 3L15 2ZM8 3L8 4L9 4L9 5L8 5L8 7L9 7L9 8L6 8L6 9L5 9L5 8L0 8L0 13L2 13L2 12L3 12L3 14L1 14L1 15L0 15L0 17L1 17L1 20L0 20L0 25L1 25L1 21L2 21L2 22L3 22L3 23L2 23L2 25L3 25L3 24L6 24L6 25L8 25L8 27L10 27L10 26L11 26L11 25L12 25L12 26L13 26L13 27L12 27L12 29L13 29L13 28L14 28L14 29L15 29L15 28L14 28L14 27L16 27L16 28L17 28L17 29L16 29L16 30L15 30L15 31L14 31L14 32L15 32L15 31L16 31L16 30L17 30L17 31L18 31L18 32L16 32L16 33L19 33L19 30L20 30L20 28L22 28L22 26L23 26L23 28L24 28L24 29L21 29L21 30L24 30L24 31L23 31L23 33L26 33L26 31L27 31L27 30L26 30L26 29L29 29L29 25L30 25L30 24L32 24L32 25L31 25L31 27L30 27L30 28L32 28L32 29L30 29L30 30L33 30L33 28L32 28L32 26L33 26L33 23L30 23L30 24L28 24L28 23L29 23L29 22L28 22L28 21L29 21L29 20L28 20L28 18L27 18L27 17L29 17L29 19L30 19L30 20L31 20L31 19L32 19L32 20L33 20L33 19L32 19L32 18L33 18L33 17L32 17L32 16L31 16L31 15L32 15L32 14L33 14L33 12L32 12L32 10L33 10L33 9L32 9L32 8L31 8L31 9L30 9L30 8L29 8L29 10L28 10L28 12L27 12L27 13L26 13L26 12L25 12L25 11L26 11L26 10L27 10L27 9L28 9L28 8L27 8L27 9L26 9L26 8L24 8L24 9L23 9L23 10L24 10L24 11L23 11L23 12L24 12L24 13L22 13L22 14L24 14L24 15L25 15L25 16L23 16L23 18L24 18L24 19L23 19L23 20L24 20L24 21L21 21L21 20L22 20L22 19L21 19L21 18L22 18L22 17L21 17L21 18L20 18L20 16L22 16L22 15L21 15L21 14L20 14L20 13L21 13L21 12L22 12L22 11L21 11L21 12L20 12L20 11L18 11L18 10L16 10L16 9L12 9L12 7L13 7L13 5L11 5L11 6L10 6L10 4L11 4L11 3ZM17 4L17 5L18 5L18 4ZM22 4L22 5L23 5L23 4ZM9 6L9 7L10 7L10 6ZM11 6L11 7L12 7L12 6ZM14 6L14 8L15 8L15 6ZM17 6L17 8L18 8L18 6ZM21 6L21 7L22 7L22 6ZM10 8L10 9L9 9L9 10L8 10L8 9L6 9L6 10L5 10L5 9L4 9L4 11L3 11L3 12L4 12L4 14L7 14L7 15L6 15L6 16L7 16L7 15L8 15L8 11L9 11L9 12L11 12L11 13L10 13L10 15L9 15L9 16L8 16L8 17L9 17L9 18L7 18L7 17L6 17L6 18L7 18L7 19L5 19L5 17L4 17L4 15L2 15L2 18L3 18L3 19L2 19L2 21L3 21L3 20L4 20L4 21L6 21L6 22L4 22L4 23L6 23L6 24L8 24L8 25L10 25L10 23L11 23L11 22L13 22L13 23L12 23L12 25L15 25L15 26L16 26L16 27L17 27L17 28L20 28L20 26L21 26L21 25L24 25L24 24L27 24L27 22L26 22L26 23L24 23L24 22L21 22L21 21L20 21L20 20L21 20L21 19L20 19L20 18L18 18L18 19L17 19L17 18L16 18L16 17L17 17L17 16L18 16L18 17L19 17L19 16L20 16L20 14L18 14L18 13L20 13L20 12L18 12L18 11L17 11L17 12L18 12L18 13L17 13L17 14L16 14L16 12L15 12L15 11L14 11L14 12L13 12L13 13L12 13L12 11L13 11L13 10L12 10L12 9L11 9L11 8ZM10 9L10 11L11 11L11 9ZM24 9L24 10L26 10L26 9ZM1 10L1 12L2 12L2 10ZM6 10L6 11L8 11L8 10ZM29 10L29 11L30 11L30 10ZM5 12L5 13L7 13L7 12ZM14 12L14 13L15 13L15 12ZM29 12L29 13L27 13L27 14L26 14L26 13L25 13L25 14L26 14L26 16L25 16L25 20L26 20L26 21L27 21L27 18L26 18L26 17L27 17L27 15L28 15L28 16L29 16L29 17L31 17L31 16L29 16L29 15L30 15L30 14L32 14L32 12ZM29 13L29 14L28 14L28 15L29 15L29 14L30 14L30 13ZM11 14L11 15L10 15L10 16L11 16L11 17L10 17L10 18L9 18L9 19L8 19L8 22L6 22L6 23L8 23L8 24L9 24L9 23L10 23L10 22L9 22L9 21L10 21L10 19L11 19L11 17L12 17L12 18L13 18L13 19L12 19L12 21L13 21L13 20L14 20L14 21L15 21L15 20L17 20L17 21L16 21L16 22L15 22L15 23L14 23L14 24L15 24L15 25L16 25L16 26L17 26L17 25L18 25L18 26L20 26L20 25L21 25L21 24L22 24L22 23L21 23L21 22L20 22L20 21L19 21L19 22L20 22L20 23L21 23L21 24L20 24L20 25L18 25L18 24L17 24L17 21L18 21L18 20L19 20L19 19L18 19L18 20L17 20L17 19L16 19L16 18L15 18L15 17L12 17L12 15L13 15L13 14ZM15 14L15 15L14 15L14 16L17 16L17 15L16 15L16 14ZM14 19L14 20L15 20L15 19ZM6 20L6 21L7 21L7 20ZM30 21L30 22L31 22L31 21ZM32 21L32 22L33 22L33 21ZM8 22L8 23L9 23L9 22ZM25 25L25 28L28 28L28 25ZM26 26L26 27L27 27L27 26ZM8 28L8 33L12 33L12 31L13 31L13 30L10 30L10 29L11 29L11 28ZM17 29L17 30L18 30L18 29ZM24 29L24 30L25 30L25 31L24 31L24 32L25 32L25 31L26 31L26 30L25 30L25 29ZM9 30L9 31L10 31L10 32L11 32L11 31L10 31L10 30ZM20 31L20 33L21 33L21 32L22 32L22 31ZM29 31L29 33L32 33L32 32L31 32L31 31ZM27 32L27 33L28 33L28 32ZM0 0L0 7L7 7L7 0ZM1 1L1 6L6 6L6 1ZM2 2L2 5L5 5L5 2ZM26 0L26 7L33 7L33 0ZM27 1L27 6L32 6L32 1ZM28 2L28 5L31 5L31 2ZM0 26L0 33L7 33L7 26ZM1 27L1 32L6 32L6 27ZM2 28L2 31L5 31L5 28Z" fill="#000000"/></g></g></svg>
