<?xml version="1.0" encoding="UTF-8"?>
<svg xmlns="http://www.w3.org/2000/svg" version="1.1" width="300" height="300" viewBox="0 0 300 300"><rect x="0" y="0" width="300" height="300" fill="#ffffff"/><g transform="scale(8.108)"><g transform="translate(0,0)"><path fill-rule="evenodd" d="M8 0L8 1L9 1L9 2L10 2L10 3L11 3L11 1L13 1L13 0L11 0L11 1L9 1L9 0ZM14 0L14 1L16 1L16 2L15 2L15 4L14 4L14 5L15 5L15 4L16 4L16 7L15 7L15 6L14 6L14 7L13 7L13 5L12 5L12 4L13 4L13 2L12 2L12 4L11 4L11 5L10 5L10 4L9 4L9 5L10 5L10 8L9 8L9 6L8 6L8 8L9 8L9 9L7 9L7 8L6 8L6 9L7 9L7 10L5 10L5 8L3 8L3 9L2 9L2 8L0 8L0 9L2 9L2 10L1 10L1 11L2 11L2 12L3 12L3 13L2 13L2 14L1 14L1 16L0 16L0 17L1 17L1 18L0 18L0 19L2 19L2 20L0 20L0 21L1 21L1 22L0 22L0 24L1 24L1 25L0 25L0 29L1 29L1 27L2 27L2 28L3 28L3 29L5 29L5 27L7 27L7 28L6 28L6 29L7 29L7 28L8 28L8 30L9 30L9 28L8 28L8 27L9 27L9 26L8 26L8 25L7 25L7 24L6 24L6 25L7 25L7 26L5 26L5 24L3 24L3 27L2 27L2 24L1 24L1 22L2 22L2 23L4 23L4 22L5 22L5 23L7 23L7 22L5 22L5 21L7 21L7 20L6 20L6 19L7 19L7 18L6 18L6 17L7 17L7 16L8 16L8 18L9 18L9 17L10 17L10 19L12 19L12 21L14 21L14 24L13 24L13 25L12 25L12 26L13 26L13 25L15 25L15 26L14 26L14 27L12 27L12 28L10 28L10 30L12 30L12 31L11 31L11 33L10 33L10 34L9 34L9 32L10 32L10 31L9 31L9 32L8 32L8 34L9 34L9 35L8 35L8 37L9 37L9 36L10 36L10 37L14 37L14 31L16 31L16 32L15 32L15 35L16 35L16 33L17 33L17 36L15 36L15 37L17 37L17 36L18 36L18 35L19 35L19 34L20 34L20 37L21 37L21 33L20 33L20 32L21 32L21 31L24 31L24 33L23 33L23 32L22 32L22 34L23 34L23 35L22 35L22 37L25 37L25 36L24 36L24 35L28 35L28 34L29 34L29 35L30 35L30 37L31 37L31 35L33 35L33 37L34 37L34 36L36 36L36 37L37 37L37 32L35 32L35 33L33 33L33 32L34 32L34 31L35 31L35 30L34 30L34 31L33 31L33 29L36 29L36 27L37 27L37 26L36 26L36 27L35 27L35 26L34 26L34 25L32 25L32 24L30 24L30 25L31 25L31 26L29 26L29 24L28 24L28 23L29 23L29 22L28 22L28 20L29 20L29 21L31 21L31 20L32 20L32 22L33 22L33 24L35 24L35 25L37 25L37 24L36 24L36 23L37 23L37 22L36 22L36 23L35 23L35 21L34 21L34 20L32 20L32 18L30 18L30 17L31 17L31 15L32 15L32 16L33 16L33 19L35 19L35 20L37 20L37 18L36 18L36 17L37 17L37 14L36 14L36 17L35 17L35 13L37 13L37 12L36 12L36 11L37 11L37 10L36 10L36 9L37 9L37 8L36 8L36 9L35 9L35 10L33 10L33 9L31 9L31 8L30 8L30 9L29 9L29 6L28 6L28 7L27 7L27 6L26 6L26 7L25 7L25 4L26 4L26 5L27 5L27 3L28 3L28 5L29 5L29 1L28 1L28 2L27 2L27 3L26 3L26 1L27 1L27 0L24 0L24 3L25 3L25 4L24 4L24 5L23 5L23 2L22 2L22 0L20 0L20 1L19 1L19 0ZM16 2L16 4L17 4L17 7L16 7L16 8L18 8L18 9L19 9L19 8L20 8L20 9L22 9L22 8L23 8L23 9L25 9L25 13L28 13L28 12L29 12L29 9L28 9L28 8L27 8L27 9L26 9L26 8L23 8L23 7L24 7L24 6L23 6L23 5L18 5L18 4L19 4L19 3L20 3L20 4L21 4L21 2L19 2L19 3L18 3L18 2ZM11 5L11 7L12 7L12 9L9 9L9 11L8 11L8 12L9 12L9 13L8 13L8 14L9 14L9 15L8 15L8 16L9 16L9 15L10 15L10 16L11 16L11 17L14 17L14 16L16 16L16 19L15 19L15 18L12 18L12 19L13 19L13 20L14 20L14 19L15 19L15 21L16 21L16 23L15 23L15 24L16 24L16 23L17 23L17 22L18 22L18 23L19 23L19 24L17 24L17 25L16 25L16 26L17 26L17 27L15 27L15 28L13 28L13 29L12 29L12 30L15 30L15 28L16 28L16 31L17 31L17 32L18 32L18 33L19 33L19 32L20 32L20 31L18 31L18 30L17 30L17 29L22 29L22 30L24 30L24 31L25 31L25 28L26 28L26 27L27 27L27 28L30 28L30 27L27 27L27 26L25 26L25 25L26 25L26 24L27 24L27 25L28 25L28 24L27 24L27 21L26 21L26 20L27 20L27 19L26 19L26 17L28 17L28 19L29 19L29 17L30 17L30 14L32 14L32 12L33 12L33 14L34 14L34 13L35 13L35 12L34 12L34 11L30 11L30 12L31 12L31 13L29 13L29 15L28 15L28 16L27 16L27 15L25 15L25 16L23 16L23 15L24 15L24 14L23 14L23 15L19 15L19 14L22 14L22 12L24 12L24 11L21 11L21 10L16 10L16 11L15 11L15 7L14 7L14 13L15 13L15 12L16 12L16 13L17 13L17 14L16 14L16 15L15 15L15 14L14 14L14 15L12 15L12 16L11 16L11 15L10 15L10 14L13 14L13 13L10 13L10 12L11 12L11 10L12 10L12 11L13 11L13 10L12 10L12 9L13 9L13 7L12 7L12 5ZM18 6L18 8L19 8L19 6ZM20 6L20 8L21 8L21 6ZM22 6L22 7L23 7L23 6ZM27 9L27 11L28 11L28 9ZM2 10L2 11L3 11L3 10ZM4 11L4 13L6 13L6 14L4 14L4 15L3 15L3 16L1 16L1 17L2 17L2 18L3 18L3 20L2 20L2 21L3 21L3 22L4 22L4 19L6 19L6 18L4 18L4 17L6 17L6 16L7 16L7 15L6 15L6 14L7 14L7 13L6 13L6 12L7 12L7 11ZM9 11L9 12L10 12L10 11ZM17 11L17 12L18 12L18 11ZM20 11L20 12L19 12L19 13L21 13L21 11ZM4 15L4 16L3 16L3 17L4 17L4 16L5 16L5 15ZM18 15L18 17L17 17L17 19L18 19L18 20L17 20L17 21L18 21L18 22L20 22L20 21L18 21L18 20L19 20L19 19L22 19L22 21L21 21L21 23L20 23L20 24L19 24L19 25L18 25L18 26L19 26L19 28L20 28L20 26L19 26L19 25L21 25L21 23L23 23L23 24L22 24L22 28L23 28L23 29L24 29L24 28L23 28L23 26L24 26L24 27L25 27L25 26L24 26L24 25L25 25L25 24L24 24L24 22L25 22L25 20L26 20L26 19L25 19L25 17L26 17L26 16L25 16L25 17L24 17L24 18L21 18L21 17L19 17L19 15ZM33 15L33 16L34 16L34 15ZM34 17L34 18L35 18L35 19L36 19L36 18L35 18L35 17ZM8 19L8 20L9 20L9 21L8 21L8 22L9 22L9 21L10 21L10 25L11 25L11 21L10 21L10 20L9 20L9 19ZM30 19L30 20L31 20L31 19ZM23 20L23 21L24 21L24 20ZM33 21L33 22L34 22L34 21ZM12 22L12 23L13 23L13 22ZM8 23L8 24L9 24L9 23ZM10 26L10 27L11 27L11 26ZM31 26L31 27L33 27L33 26ZM26 29L26 31L28 31L28 29ZM29 29L29 32L32 32L32 29ZM30 30L30 31L31 31L31 30ZM36 30L36 31L37 31L37 30ZM12 31L12 33L11 33L11 34L12 34L12 35L13 35L13 34L12 34L12 33L13 33L13 31ZM25 32L25 33L24 33L24 34L26 34L26 33L27 33L27 34L28 34L28 33L27 33L27 32ZM31 33L31 34L30 34L30 35L31 35L31 34L33 34L33 33ZM34 34L34 35L36 35L36 34ZM27 36L27 37L29 37L29 36ZM0 0L0 7L7 7L7 0ZM1 1L1 6L6 6L6 1ZM2 2L2 5L5 5L5 2ZM30 0L30 7L37 7L37 0ZM31 1L31 6L36 6L36 1ZM32 2L32 5L35 5L35 2ZM0 30L0 37L7 37L7 30ZM1 31L1 36L6 36L6 31ZM2 32L2 35L5 35L5 32Z" fill="#000000"/></g></g></svg>
